<svg width="100" height="100" viewBox="0 0 100 100" fill="none" xmlns="http://www.w3.org/2000/svg">
<circle cx="50" cy="50" r="50" fill="white"/>
<path d="M40.42 44.7131C40.42 44.7131 39.0466 47.9045 26.1706 50.0881C13.2946 52.2717 11.7493 56.9748 16.3848 59.3264C21.0202 61.678 10.3759 60.3343 16.3848 66.8851C22.3937 73.4358 31.6644 69.2367 30.806 72.764C29.9476 76.2914 43.3387 80.4906 48.3175 75.7875C53.2962 71.0844 68.9191 72.2601 69.0907 76.2914C69.2623 80.3227 77.503 47.4008 57.2448 45.5531C36.9865 43.7052 40.42 44.7131 40.42 44.7131Z" fill="#890628"/>
<path d="M48.3215 44.7615C50.0698 46.6858 48.9602 50.4429 45.8424 53.1586C42.7246 55.8703 25.9619 67.6631 24.2106 65.7427C22.4649 63.8157 36.3972 48.9028 39.515 46.1912C42.63 43.4796 46.5732 42.8386 48.3215 44.7615Z" fill="#F9D49D"/>
<path d="M52.1521 44.7615C50.4037 46.6858 51.5134 50.4429 54.6312 53.1586C57.749 55.8703 74.5117 67.6631 76.263 65.7427C78.0087 63.8157 64.0764 48.9028 60.9586 46.1912C57.845 43.4796 53.9018 42.8386 52.1521 44.7615Z" fill="#F9D49D"/>
<path d="M66.7161 71.7397C66.7161 75.0668 63.9582 93.0072 60.5548 93.0072C57.1556 93.0072 54.399 75.0654 54.399 71.7397C54.399 68.414 57.157 65.7144 60.5548 65.7144C63.9582 65.7144 66.7161 68.414 66.7161 71.7397Z" fill="#0265B7"/>
<path d="M46.08 71.7397C46.08 75.0668 43.3221 93.0072 39.9187 93.0072C36.5195 93.0072 33.763 75.0654 33.763 71.7397C33.763 68.414 36.5209 65.7144 39.9187 65.7144C43.3221 65.7144 46.08 68.414 46.08 71.7397Z" fill="#0265B7"/>
<path d="M67.6114 63.7781C67.6114 85.3292 59.835 78.1521 50.2373 78.1521C40.6425 78.1521 32.8633 85.3292 32.8633 63.7781C32.8633 51.456 40.6453 41.4678 50.2373 41.4678C59.8324 41.4693 67.6114 51.4574 67.6114 63.7781Z" fill="black"/>
<path d="M38.0398 47.9004C41.5572 49.3167 45.7379 50.0369 50.2402 50.0369C54.7382 50.0369 58.9203 49.3167 62.4349 47.9018C59.2966 43.927 54.9908 41.4692 50.2374 41.4692C45.4839 41.4692 41.1782 43.9256 38.0398 47.9004Z" fill="#890628"/>
<path d="M35.2148 82.0049C36.1748 86.6622 37.5373 91.3372 39.0797 92.6421H40.7539C42.2992 91.3374 43.6642 86.6624 44.6215 82.0049H35.2148Z" fill="#EFC206"/>
<path d="M55.8521 82.0049C56.8121 86.6622 58.1746 91.3372 59.717 92.6421H61.3912C62.9364 91.3374 64.3015 86.6624 65.2588 82.0049H55.8521Z" fill="#EFC206"/>
<path d="M46.8491 93.1164C46.8491 95.6642 43.7451 96.0001 39.9201 96.0001C36.0951 96.0001 32.9911 95.6656 32.9911 93.1164C32.9911 90.5673 36.0951 87.0588 39.9201 87.0588C43.7451 87.0588 46.8491 90.5674 46.8491 93.1164Z" fill="#FFD527"/>
<path d="M46.8491 93.1162C46.8491 95.664 43.7451 95.9999 39.9201 95.9999C36.0951 95.9999 32.9911 95.6654 32.9911 93.1162" fill="#EDB107"/>
<path d="M67.4866 93.1164C67.4866 95.6642 64.3826 96.0001 60.5576 96.0001C56.7326 96.0001 53.6285 95.6656 53.6285 93.1164C53.6285 90.5673 56.7326 87.0588 60.5576 87.0588C64.3826 87.0588 67.4866 90.5674 67.4866 93.1164Z" fill="#FFD527"/>
<path d="M67.4866 93.1162C67.4866 95.664 64.3826 95.9999 60.5576 95.9999C56.7326 95.9999 53.6285 95.6654 53.6285 93.1162" fill="#EDB107"/>
<path d="M72.722 31.1976C72.722 41.9463 62.6546 47.3495 50.2402 47.3495C37.8229 47.3495 27.7527 41.9463 27.7527 31.1976C27.7527 20.4463 37.8229 10 50.2402 10C62.6548 10 72.722 20.4463 72.722 31.1976Z" fill="#F9D49D"/>
<path d="M72.722 31.1975C72.722 41.9462 62.6546 48.3235 50.2402 48.3235C37.8229 48.3235 27.7527 41.9461 27.7527 31.1975" fill="#F4CB89"/>
<path d="M39.5465 32.6841C40.657 32.6841 41.5572 31.8033 41.5572 30.7168C41.5572 29.6303 40.657 28.7495 39.5465 28.7495C38.436 28.7495 37.5357 29.6303 37.5357 30.7168C37.5357 31.8033 38.436 32.6841 39.5465 32.6841Z" fill="#113E49"/>
<path d="M41.5572 30.7168C41.5572 31.8065 40.6563 32.6854 39.5451 32.6854C38.434 32.6854 37.5357 31.8067 37.5357 30.7168" fill="black"/>
<path d="M43.5117 34.8206C43.4046 34.8206 43.2946 34.7829 43.2109 34.6982C42.2289 33.7388 40.9255 33.2107 39.5411 33.2107H39.5383C38.1539 33.2107 36.8533 33.7402 35.8767 34.6969C35.7119 34.8595 35.4427 34.8636 35.2793 34.6982C35.1131 34.541 35.1076 34.2789 35.2737 34.115C36.4137 32.9983 37.9272 32.3816 39.5383 32.3816H39.5411C41.1562 32.3816 42.6713 32.9944 43.8139 34.1123C43.9772 34.2721 43.9772 34.5396 43.8139 34.6981C43.7328 34.7815 43.6243 34.8206 43.5117 34.8206Z" fill="#F9D49D"/>
<path d="M60.9283 32.6841C62.0388 32.6841 62.939 31.8033 62.939 30.7168C62.939 29.6303 62.0388 28.7495 60.9283 28.7495C59.8178 28.7495 58.9175 29.6303 58.9175 30.7168C58.9175 31.8033 59.8178 32.6841 60.9283 32.6841Z" fill="#113E49"/>
<path d="M58.9203 30.7168C58.9203 31.8065 59.8184 32.6854 60.9324 32.6854C62.0435 32.6854 62.9418 31.8067 62.9418 30.7168" fill="black"/>
<path d="M56.9647 34.8206C57.0691 34.8206 57.179 34.7829 57.2627 34.6982C58.2447 33.7388 59.548 33.2107 60.9325 33.2107H60.9353C62.3197 33.2107 63.6231 33.7402 64.5997 34.6969C64.7631 34.8595 65.0309 34.8636 65.1984 34.6982C65.3646 34.541 65.3674 34.2789 65.2012 34.115C64.0668 32.9983 62.5478 32.3816 60.9367 32.3816H60.9339C59.3214 32.3816 57.8065 32.9944 56.6611 34.1123C56.5003 34.2721 56.5003 34.5396 56.6611 34.6981C56.7448 34.7815 56.852 34.8206 56.9647 34.8206Z" fill="#F9D49D"/>
<path d="M45.8589 35.5554C45.8589 33.1905 47.8202 31.2715 50.2376 31.2715C52.6549 31.2715 54.6162 33.1903 54.6162 35.5554C54.6162 37.9204 52.6549 37.6544 50.2376 37.6544C47.8202 37.6544 45.8589 37.9192 45.8589 35.5554Z" fill="#890628"/>
<path d="M33.6805 22.458C33.6805 22.458 33.48 22.806 33.1874 23.4026C31.9156 25.996 28.8845 33.2818 32.6504 37.2393L29.7319 35.7275C29.7319 35.7275 31.9638 40.4305 31.9638 43.9579C31.9638 43.9579 29.2168 40.7664 27.1567 39.7588L27.6718 42.7822C27.6718 42.7822 21.8347 36.5673 25.6117 29.5126L21.4913 31.6962C21.4913 31.6962 25.0966 25.6493 27.5002 24.8095C29.9038 23.9697 30.2471 21.9541 30.2471 21.9541L33.6805 22.458Z" fill="#EFC206"/>
<path d="M66.7997 22.458C66.7997 22.458 67.0003 22.806 67.2928 23.4026C68.5646 25.996 71.5958 33.2818 67.8299 37.2393L70.7484 35.7275C70.7484 35.7275 68.5165 40.4305 68.5165 43.9579C68.5165 43.9579 71.2634 40.7664 73.3235 39.7588L72.8085 42.7822C72.8085 42.7822 78.6456 36.5673 74.8686 29.5126L78.9889 31.6962C78.9889 31.6962 75.3836 25.6493 72.98 24.8095C70.5764 23.9697 70.2331 21.9541 70.2331 21.9541L66.7997 22.458Z" fill="#EFC206"/>
<path d="M29.5905 23.2131H70.8846C67.4343 15.8049 59.4917 10 50.2402 10C40.9858 10 33.0392 15.8049 29.5905 23.2131Z" fill="#9FAAAD"/>
<path d="M50.2402 10C42.9087 10 36.4095 13.6497 32.3043 18.8459H68.169C64.0652 13.6497 57.5688 10 50.2402 10Z" fill="#AFBABC"/>
<path d="M32.9678 21.9823C32.9678 21.9823 33.0556 21.7902 33.1449 21.4676C33.5158 20.1104 33.8825 16.4609 27.5894 15.375C19.8047 14.0313 20.6068 12.6875 20.6068 12.6875C20.6068 12.6875 19.8047 16.9431 25.9852 17.951C25.9852 17.951 22.439 18.3998 21.6369 17.8408C21.6369 17.8408 23.4664 21.3089 27.3587 20.0781L26.2159 21.7578C26.2159 21.7578 27.4739 22.8798 29.5342 21.2001C29.5342 21.2001 30.2208 23.2991 31.5943 22.9632C31.5943 22.9632 32.4527 22.767 32.6808 22.6824C32.9114 22.5976 32.9678 21.9823 32.9678 21.9823Z" fill="#D8D7B6"/>
<path d="M25.9289 16.7741C23.9567 16.4341 22.5407 16.0928 21.5159 15.7756C22.2727 16.6975 23.6104 17.5641 25.9852 17.9512C25.9852 17.9512 22.439 18.4 21.6369 17.841C21.6369 17.841 21.8924 18.3221 22.4142 18.8635C22.9637 19.0611 23.5914 19.2303 24.3275 19.3499C24.3275 19.3499 23.7987 19.4158 23.1065 19.4654C24.0513 20.1575 25.4564 20.6802 27.3587 20.0782L26.2159 21.7578C26.2159 21.7578 27.4739 22.8798 29.5342 21.2002C29.5342 21.2002 30.1783 23.1258 31.4515 22.9685C31.4653 22.9296 31.4735 22.9093 31.483 22.8663C31.8539 21.5094 32.222 17.8611 25.9289 16.7741Z" fill="#C1BFA3"/>
<path d="M67.5072 21.9823C67.5072 21.9823 67.4193 21.7902 67.33 21.4676C66.9592 20.1104 66.5925 16.4609 72.8856 15.375C80.6702 14.0313 79.8681 12.6875 79.8681 12.6875C79.8681 12.6875 80.6702 16.9431 74.4897 17.951C74.4897 17.951 78.0359 18.3998 78.838 17.8408C78.838 17.8408 77.0086 21.3089 73.1163 20.0781L74.259 21.7578C74.259 21.7578 73.001 22.8798 70.9407 21.2001C70.9407 21.2001 70.2541 23.2991 68.8806 22.9632C68.8806 22.9632 68.0223 22.767 67.7942 22.6824C67.5635 22.5976 67.5072 21.9823 67.5072 21.9823Z" fill="#D8D7B6"/>
<path d="M74.546 16.7741C76.5182 16.4341 77.9342 16.0928 78.959 15.7756C78.2022 16.6975 76.8645 17.5641 74.4897 17.9512C74.4897 17.9512 78.0359 18.4 78.838 17.841C78.838 17.841 78.5825 18.3221 78.0606 18.8635C77.5112 19.0611 76.8837 19.2303 76.1474 19.3499C76.1474 19.3499 76.6762 19.4158 77.3684 19.4654C76.4235 20.1575 75.0185 20.6802 73.1162 20.0782L74.259 21.7578C74.259 21.7578 73.001 22.8798 70.9407 21.2002C70.9407 21.2002 70.2966 23.1258 69.0234 22.9685C69.0096 22.9296 69.0014 22.9093 68.9919 22.8663C68.621 21.5094 68.2529 17.8611 74.546 16.7741Z" fill="#C1BFA3"/>
<path d="M44.0625 57.9274C45.8011 57.9274 47.2105 56.5484 47.2105 54.8475C47.2105 53.1465 45.8011 51.7676 44.0625 51.7676C42.3239 51.7676 40.9146 53.1465 40.9146 54.8475C40.9146 56.5484 42.3239 57.9274 44.0625 57.9274Z" fill="#EDB107"/>
<path d="M44.0625 65.7655C45.8011 65.7655 47.2105 64.3866 47.2105 62.6856C47.2105 60.9846 45.8011 59.6057 44.0625 59.6057C42.3239 59.6057 40.9146 60.9846 40.9146 62.6856C40.9146 64.3866 42.3239 65.7655 44.0625 65.7655Z" fill="#EDB107"/>
<path d="M44.0625 73.6034C45.8011 73.6034 47.2105 72.2245 47.2105 70.5235C47.2105 68.8225 45.8011 67.4436 44.0625 67.4436C42.3239 67.4436 40.9146 68.8225 40.9146 70.5235C40.9146 72.2245 42.3239 73.6034 44.0625 73.6034Z" fill="#EDB107"/>
<path d="M56.4234 57.9274C58.162 57.9274 59.5714 56.5484 59.5714 54.8475C59.5714 53.1465 58.162 51.7676 56.4234 51.7676C54.6848 51.7676 53.2755 53.1465 53.2755 54.8475C53.2755 56.5484 54.6848 57.9274 56.4234 57.9274Z" fill="#EDB107"/>
<path d="M56.4234 65.7655C58.162 65.7655 59.5714 64.3866 59.5714 62.6856C59.5714 60.9846 58.162 59.6057 56.4234 59.6057C54.6848 59.6057 53.2755 60.9846 53.2755 62.6856C53.2755 64.3866 54.6848 65.7655 56.4234 65.7655Z" fill="#EDB107"/>
<path d="M56.4234 73.6034C58.162 73.6034 59.5714 72.2245 59.5714 70.5235C59.5714 68.8225 58.162 67.4436 56.4234 67.4436C54.6848 67.4436 53.2755 68.8225 53.2755 70.5235C53.2755 72.2245 54.6848 73.6034 56.4234 73.6034Z" fill="#EDB107"/>
<path d="M91.4573 56.253C91.1249 57.1063 90.1483 57.5337 89.2762 57.2084L71.269 50.4762C70.3968 50.1511 69.9601 49.1956 70.2926 48.3423L73.2057 40.8831C73.538 40.0298 74.5146 39.6052 75.3868 39.9303L93.3939 46.6599C94.2661 46.985 94.7029 47.9405 94.3704 48.7938L91.4573 56.253Z" fill="#828C8E"/>
<path d="M93.3938 46.6599L75.3866 39.9303C74.5144 39.6052 73.538 40.0298 73.2055 40.8831L72.5023 42.6837C72.17 43.537 72.6067 44.4923 73.4761 44.8177L91.4861 51.5472C92.3554 51.8724 93.332 51.4478 93.6644 50.5945L94.3704 48.7938C94.7027 47.9405 94.2659 46.985 93.3938 46.6599Z" fill="#9FAAAD"/>
<path d="M74.2425 72.3676C74.02 72.9374 73.3675 73.2209 72.7879 73.0032C72.2056 72.7883 71.9158 72.1527 72.1382 71.5829L80.0726 51.2613C80.2951 50.6943 80.9448 50.408 81.5244 50.6257C82.1068 50.8434 82.3993 51.479 82.1769 52.0488L74.2425 72.3676Z" fill="#5B441A"/>
</svg>
