<svg width="101" height="101" viewBox="0 0 101 101" fill="none" xmlns="http://www.w3.org/2000/svg">
<circle cx="50.998" cy="50.5828" r="50" fill="white"/>
<path d="M67.7756 56.6628C67.6459 56.6627 67.519 56.632 67.4112 56.5744C67.3034 56.5169 67.2193 56.4351 67.1697 56.3395C67.1201 56.2439 67.1071 56.1387 67.1324 56.0372C67.1578 55.9357 67.2202 55.8425 67.312 55.7693L88.8922 38.5542C88.5385 38.13 88.349 37.6315 88.349 37.1107C88.349 36.5899 88.5384 36.0914 88.8922 35.6672L72.0963 22.2689C71.0043 22.8455 69.5688 22.8455 68.4768 22.2689L62.6491 26.9166C62.5882 26.9652 62.5159 27.0037 62.4363 27.03C62.3567 27.0563 62.2714 27.0698 62.1853 27.0698C62.0991 27.0698 62.0138 27.0563 61.9343 27.03C61.8547 27.0037 61.7824 26.9651 61.7214 26.9166C61.6605 26.868 61.6122 26.8103 61.5793 26.7468C61.5463 26.6833 61.5294 26.6153 61.5294 26.5466C61.5294 26.4779 61.5463 26.4098 61.5793 26.3463C61.6123 26.2829 61.6606 26.2252 61.7215 26.1766L67.9656 21.196C68.0887 21.098 68.2555 21.0429 68.4294 21.0428C68.6033 21.0427 68.7702 21.0976 68.8935 21.1954C69.6626 21.8079 70.911 21.8079 71.68 21.1954C71.8032 21.0975 71.9701 21.0426 72.1441 21.0427C72.318 21.0428 72.4848 21.0979 72.6079 21.196L90.238 35.2605C90.3611 35.3586 90.4302 35.4917 90.4302 35.6305C90.4302 35.7693 90.3611 35.9025 90.238 36.0006C89.8663 36.2977 89.6612 36.6917 89.6612 37.1108C89.6612 37.53 89.8663 37.9245 90.238 38.221C90.3611 38.3192 90.4302 38.4523 90.4302 38.5911C90.4302 38.7299 90.3611 38.863 90.238 38.9612L68.2396 56.5094C68.1787 56.5581 68.1064 56.5967 68.0268 56.6231C67.9472 56.6494 67.8618 56.6629 67.7756 56.6628Z" fill="black"/>
<path d="M67.7755 59.6225C67.6458 59.6224 67.519 59.5917 67.4112 59.5341C67.3033 59.4766 67.2193 59.3948 67.1696 59.2992C67.12 59.2036 67.1071 59.0984 67.1324 58.9969C67.1577 58.8954 67.2202 58.8022 67.3119 58.729L94.4136 37.1109L70.2852 17.8655L58.9373 26.9167C58.8134 27.0113 58.648 27.0635 58.4764 27.062C58.3048 27.0605 58.1408 27.0055 58.0195 26.9087C57.8982 26.812 57.8292 26.6812 57.8273 26.5443C57.8254 26.4075 57.8908 26.2755 58.0094 26.1767L69.8212 16.7553C69.9443 16.6572 70.1112 16.6021 70.2852 16.6021C70.4592 16.6021 70.6261 16.6572 70.7492 16.7553L95.8056 36.7409C95.8666 36.7895 95.9149 36.8472 95.9479 36.9107C95.9808 36.9742 95.9978 37.0422 95.9978 37.1109C95.9978 37.1797 95.9808 37.2477 95.9479 37.3112C95.9149 37.3747 95.8666 37.4324 95.8056 37.4809L68.2395 59.4691C68.1787 59.5178 68.1063 59.5564 68.0267 59.5827C67.9471 59.609 67.8617 59.6226 67.7755 59.6225Z" fill="black"/>
<path d="M66.6133 32.4532C66.2506 32.4532 65.9507 32.2191 65.9507 31.9298C65.9507 31.6405 66.2378 31.4064 66.5992 31.4064H66.6133C66.9747 31.4064 67.2696 31.6405 67.2696 31.9298C67.2696 32.2191 66.9747 32.4532 66.6133 32.4532ZM68.4689 30.973C68.1061 30.973 67.8062 30.7388 67.8062 30.4495C67.8062 30.1602 68.0933 29.9261 68.4548 29.9261H68.4689C68.8303 29.9261 69.1251 30.1602 69.1251 30.4495C69.1251 30.7388 68.8303 30.973 68.4689 30.973ZM70.3249 29.4927C69.9622 29.4927 69.6623 29.2586 69.6623 28.9692C69.6623 28.68 69.9494 28.4458 70.3108 28.4458H70.3249C70.6863 28.4458 70.9812 28.6799 70.9812 28.9692C70.9812 29.2586 70.6863 29.4927 70.3249 29.4927ZM70.2852 45.7766C70.1555 45.7765 70.0286 45.7458 69.9208 45.6883C69.8129 45.6308 69.7289 45.549 69.6792 45.4534C69.6296 45.3578 69.6166 45.2526 69.6418 45.1511C69.6671 45.0496 69.7295 44.9564 69.8212 44.8832L80.9589 36.0006C81.0195 35.9506 81.0919 35.9107 81.172 35.8833C81.252 35.8558 81.3381 35.8414 81.4253 35.8408C81.5124 35.8402 81.5988 35.8534 81.6795 35.8798C81.7601 35.9061 81.8334 35.9449 81.895 35.9941C81.9566 36.0432 82.0054 36.1017 82.0384 36.166C82.0714 36.2303 82.088 36.2993 82.0872 36.3688C82.0864 36.4383 82.0683 36.5069 82.0339 36.5708C81.9996 36.6347 81.9496 36.6924 81.8869 36.7407L70.7492 45.6232C70.6883 45.6719 70.616 45.7105 70.5364 45.7368C70.4567 45.7631 70.3714 45.7766 70.2852 45.7766ZM68.4292 42.8151C68.343 42.8151 68.2576 42.8016 68.178 42.7753C68.0984 42.749 68.0261 42.7104 67.9652 42.6617L65.2867 40.5252C65.224 40.4769 65.174 40.4191 65.1396 40.3553C65.1052 40.2914 65.0871 40.2227 65.0864 40.1532C65.0856 40.0837 65.1022 40.0148 65.1352 39.9505C65.1682 39.8861 65.217 39.8277 65.2786 39.7785C65.3402 39.7294 65.4135 39.6905 65.4941 39.6642C65.5748 39.6379 65.6612 39.6246 65.7483 39.6252C65.8355 39.6259 65.9216 39.6403 66.0016 39.6677C66.0817 39.6952 66.1541 39.735 66.2146 39.785L68.8931 41.9216C68.9849 41.9948 69.0474 42.088 69.0727 42.1896C69.098 42.2911 69.085 42.3963 69.0353 42.4919C68.9857 42.5876 68.9016 42.6693 68.7937 42.7268C68.6858 42.7843 68.5589 42.8151 68.4292 42.8151ZM71.2131 39.9445C70.8683 39.9453 70.5267 39.8915 70.2082 39.7862C69.8896 39.6809 69.6004 39.5263 69.3573 39.3312L67.5014 37.8509C66.479 37.0346 66.479 35.7067 67.5014 34.8904C68.4935 34.0992 70.2212 34.0992 71.2133 34.8904L73.069 36.3706C74.0918 37.1869 74.0918 38.5149 73.069 39.3312C72.8259 39.5262 72.5367 39.6809 72.2181 39.7861C71.8995 39.8914 71.558 39.9453 71.2131 39.9445ZM69.3571 35.3238C69.1847 35.3235 69.0139 35.3504 68.8547 35.4031C68.6954 35.4557 68.5508 35.533 68.4292 35.6305C67.9178 36.0384 67.9178 36.7029 68.4292 37.1108L70.285 38.5911C70.7823 38.9867 71.6436 38.9867 72.1409 38.5911C72.6523 38.1832 72.6523 37.5187 72.1409 37.1108L70.285 35.6305C70.1634 35.533 70.0188 35.4557 69.8595 35.4031C69.7003 35.3504 69.5295 35.3235 69.3571 35.3238ZM75.854 36.2438C75.5089 36.2447 75.1671 36.1909 74.8483 36.0856C74.5295 35.9803 74.2401 35.8256 73.9968 35.6304L72.1411 34.1501C71.8965 33.9561 71.7025 33.7253 71.5705 33.4712C71.4385 33.217 71.371 32.9444 71.372 32.6693C71.372 32.1101 71.645 31.5842 72.1411 31.189C73.1328 30.3994 74.8645 30.3984 75.854 31.1901L77.7087 32.6698C78.7311 33.4861 78.7311 34.8141 77.7087 35.6304C77.4659 35.8255 77.1769 35.9802 76.8585 36.0855C76.5401 36.1908 76.1987 36.2447 75.854 36.2438ZM73.9979 31.6232C73.6467 31.6232 73.3174 31.7321 73.0687 31.9299C72.82 32.1278 72.6845 32.39 72.6845 32.6695C72.6845 32.9492 72.8213 33.2124 73.0687 33.4102L74.9246 34.8905C75.4218 35.2866 76.2871 35.2871 76.7793 34.891C77.292 34.4826 77.292 33.8181 76.7806 33.4102L74.9247 31.9299C74.8034 31.8324 74.659 31.7551 74.4999 31.7024C74.3408 31.6498 74.1702 31.6228 73.9979 31.6232Z" fill="black"/>
<path d="M67.5014 43.5563C67.3716 43.5562 67.2448 43.5254 67.137 43.4679C67.0291 43.4104 66.9451 43.3286 66.8955 43.233C66.8459 43.1374 66.8329 43.0322 66.8582 42.9307C66.8835 42.8292 66.946 42.7359 67.0377 42.6627L68.8934 41.1814C68.954 41.1314 69.0264 41.0915 69.1065 41.0641C69.1865 41.0367 69.2726 41.0222 69.3598 41.0216C69.4469 41.021 69.5333 41.0343 69.614 41.0606C69.6946 41.0869 69.7679 41.1258 69.8295 41.1749C69.8911 41.2241 69.9399 41.2825 69.9729 41.3468C70.0059 41.4112 70.0225 41.4801 70.0217 41.5496C70.0209 41.6191 70.0028 41.6878 69.9685 41.7517C69.9341 41.8155 69.8841 41.8733 69.8214 41.9216L67.9655 43.4029C67.9046 43.4516 67.8323 43.4902 67.7526 43.5165C67.673 43.5428 67.5876 43.5563 67.5014 43.5563ZM61.3574 76.27H16.453C15.2252 76.27 14.0844 75.8856 13.2412 75.1874C12.3977 74.4904 11.9582 73.5671 12.0031 72.5888L14.6267 31.7521C14.7164 29.751 16.8415 28.1169 19.3612 28.1169H58.4479C60.9678 28.1169 63.0914 29.751 63.1849 31.7593L65.8061 72.5818C65.8522 73.5673 65.4127 74.4905 64.5692 75.1876C63.7256 75.8857 62.5849 76.27 61.3574 76.27ZM19.3612 29.1636C17.5386 29.1636 16.0031 30.3453 15.9378 31.7975L13.3142 72.6348C13.2833 73.3188 13.5922 73.9699 14.187 74.4617C14.7804 74.9524 15.5851 75.2232 16.453 75.2232H61.3574C62.2248 75.2232 63.0297 74.9524 63.6233 74.4617C64.218 73.9699 64.5269 73.3188 64.4948 72.6276L61.8739 31.8051C61.8059 30.3453 60.2692 29.1634 58.4478 29.1634H19.3612V29.1636Z" fill="black"/>
<path d="M61.3574 79.4104H16.453C15.2252 79.4104 14.0844 79.026 13.2412 78.3279C12.3977 77.6307 11.9582 76.7075 12.0031 75.7293C12.0159 75.441 12.2711 75.2192 12.6837 75.2252C12.8576 75.2306 13.0217 75.2908 13.1402 75.3925C13.2586 75.4943 13.3217 75.6293 13.3156 75.768C13.2836 76.4591 13.5926 77.1102 14.1871 77.602C14.7806 78.0927 15.5853 78.3636 16.4532 78.3636H61.3576C62.225 78.3636 63.0299 78.0927 63.6234 77.602C64.2182 77.1102 64.5271 76.4592 64.4949 75.768C64.4888 75.6293 64.5519 75.4942 64.6703 75.3925C64.7888 75.2908 64.953 75.2306 65.1269 75.2252H65.1512C65.3211 75.2253 65.4843 75.2778 65.6067 75.3718C65.729 75.4658 65.801 75.5939 65.8074 75.7293C65.8522 76.7076 65.4127 77.6307 64.5692 78.3279C63.7256 79.0262 62.5849 79.4104 61.3574 79.4104Z" fill="black"/>
<path d="M12.6589 76.2721C12.2964 76.2721 12.0027 76.038 12.0027 75.7487V72.8013C12.0026 72.7326 12.0196 72.6645 12.0526 72.601C12.0855 72.5375 12.1339 72.4798 12.1948 72.4312C12.2558 72.3826 12.3281 72.344 12.4078 72.3177C12.4874 72.2915 12.5728 72.278 12.6589 72.278C13.0217 72.278 13.3152 72.512 13.3152 72.8013V75.7485C13.3153 75.8173 13.2983 75.8854 13.2654 75.9489C13.2324 76.0125 13.1841 76.0702 13.1231 76.1188C13.0622 76.1675 12.9898 76.206 12.9102 76.2323C12.8305 76.2586 12.7451 76.2721 12.6589 76.2721ZM65.1507 76.2721C64.788 76.2721 64.4945 76.038 64.4945 75.7487V72.8096C64.4945 72.5202 64.788 72.2863 65.1507 72.2863C65.5135 72.2863 65.807 72.5202 65.807 72.8096V75.7487C65.807 76.038 65.5135 76.2721 65.1507 76.2721ZM46.9229 49.053H41.8578C40.7722 49.053 39.8892 48.3485 39.8892 47.4827V44.3422C39.8892 43.4763 40.7722 42.772 41.8578 42.772H46.8742C47.9573 42.772 48.8454 43.4748 48.8531 44.3386L48.8813 47.4791C48.8837 47.6854 48.8345 47.8899 48.7366 48.0808C48.6387 48.2717 48.494 48.4451 48.311 48.5909C48.1298 48.7377 47.9137 48.8541 47.6753 48.9334C47.437 49.0128 47.1812 49.0534 46.9229 49.053ZM41.8578 43.8189C41.4964 43.8189 41.2015 44.0535 41.2015 44.3423V47.4827C41.2015 47.7715 41.4962 48.0061 41.8578 48.0061H46.9229C47.0947 48.0061 47.2574 47.9519 47.3805 47.8532C47.5035 47.7546 47.5701 47.6242 47.5688 47.4863L47.5406 44.3458C47.5387 44.2057 47.4677 44.0719 47.343 43.9732C47.2183 43.8746 47.0498 43.8191 46.8742 43.8189H41.8578ZM57.5246 49.053H52.1726C51.0896 49.053 50.2014 48.3501 50.1936 47.4863L50.1654 44.3458C50.163 44.1396 50.2122 43.935 50.3102 43.7441C50.4081 43.5532 50.5528 43.3798 50.7359 43.234C50.9171 43.0873 51.1332 42.9708 51.3715 42.8915C51.6098 42.8121 51.8656 42.7715 52.1238 42.772H57.3325C58.4091 42.772 59.309 43.4697 59.3396 44.3274L59.455 47.4673C59.463 47.6736 59.419 47.8791 59.3254 48.0715C59.2318 48.2639 59.0906 48.4393 58.9103 48.5872C58.7305 48.7352 58.5151 48.8528 58.277 48.9328C58.0389 49.0128 57.783 49.0537 57.5246 49.053ZM52.1238 43.8189C52.0387 43.8188 51.9544 43.8324 51.8758 43.8586C51.7972 43.8848 51.726 43.9233 51.6663 43.9717C51.6058 44.0198 51.558 44.077 51.5257 44.1401C51.4933 44.2031 51.4771 44.2707 51.4779 44.3388L51.5061 47.4793C51.508 47.6193 51.579 47.7532 51.7037 47.8519C51.8285 47.9505 51.9969 48.006 52.1726 48.0062H57.5248C57.6075 48.0066 57.6894 47.9937 57.7656 47.9681C57.8419 47.9425 57.9108 47.9049 57.9682 47.8574C58.0265 47.8101 58.0719 47.7537 58.1019 47.6918C58.1318 47.63 58.1457 47.5639 58.1425 47.4976L58.0271 44.3576C58.017 44.0653 57.699 43.8189 57.3325 43.8189H52.1238ZM26.3752 49.053H21.023C20.4911 49.053 19.9989 48.8853 19.6401 48.5812C19.2813 48.2776 19.1005 47.8773 19.1314 47.4541L19.3607 44.3101C19.4236 43.4616 20.3398 42.7721 21.4049 42.7721H26.6136C27.143 42.7721 27.6351 42.9383 27.9991 43.2398C28.363 43.5414 28.5528 43.939 28.5335 44.3607L28.3912 47.5027C28.3502 48.3578 27.4467 49.053 26.3752 49.053ZM21.4049 43.8189C21.0294 43.8189 20.6923 44.0719 20.6704 44.3709L20.4411 47.515C20.4321 47.6479 20.4859 47.7711 20.595 47.8631C20.7039 47.9556 20.8565 48.0062 21.023 48.0062H26.3752C26.743 48.0062 27.0661 47.7582 27.0789 47.4645L27.2211 44.3225C27.2275 44.1871 27.1686 44.0608 27.0544 43.9662C26.9973 43.9191 26.9287 43.8818 26.8529 43.8565C26.7771 43.8312 26.6956 43.8184 26.6134 43.819H21.4049V43.8189ZM36.608 49.053H31.6249C31.0955 49.053 30.6021 48.8868 30.2381 48.5853C29.8742 48.2836 29.6844 47.8854 29.7037 47.4643L29.8473 44.3224C29.8883 43.4672 30.7918 42.7721 31.8633 42.7721H36.608C37.6936 42.7721 38.5767 43.4764 38.5767 44.3423V47.4827C38.5767 48.3485 37.6937 49.053 36.608 49.053ZM31.8634 43.8189C31.4956 43.8189 31.1726 44.0668 31.1598 44.3607L31.0162 47.5027C31.0098 47.6381 31.0687 47.7644 31.1829 47.8589C31.2402 47.906 31.309 47.9434 31.385 47.9687C31.461 47.994 31.5427 48.0067 31.6251 48.0061H36.608C36.9643 48.0061 37.2642 47.7664 37.2642 47.4827V44.3422C37.2642 44.0585 36.9643 43.8187 36.608 43.8187H31.8634V43.8189ZM25.76 63.7083H20.0388C19.5069 63.7083 19.0147 63.5407 18.6559 63.2369C18.2969 62.9323 18.1163 62.5325 18.147 62.1095L18.3764 58.9649C18.4392 58.1175 19.3556 57.4274 20.4206 57.4274H25.9984C26.5278 57.4274 27.02 57.5931 27.3839 57.8946C27.7478 58.1962 27.9376 58.5948 27.9182 59.0159L27.776 62.1575C27.7351 63.0132 26.8316 63.7083 25.76 63.7083ZM20.4206 58.4742C20.045 58.4742 19.708 58.7267 19.6862 59.0263L19.4569 62.1708C19.4478 62.3027 19.5017 62.4263 19.6106 62.5183C19.7195 62.6103 19.8721 62.6614 20.0386 62.6614H25.76C26.1278 62.6614 26.4508 62.4131 26.4636 62.1197L26.6059 58.9781C26.6123 58.8422 26.5534 58.7164 26.4392 58.6213C26.382 58.5742 26.3135 58.5369 26.2376 58.5116C26.1618 58.4863 26.0804 58.4735 25.9982 58.4741H20.4206V58.4742ZM47.0459 63.7083H41.8578C40.7722 63.7083 39.8892 63.0039 39.8892 62.1381V58.9976C39.8892 58.1319 40.7722 57.4274 41.8578 57.4274H46.9972C48.0804 57.4274 48.9684 58.1298 48.9761 58.9936L49.0044 62.1341C49.0068 62.3404 48.9576 62.545 48.8596 62.736C48.7617 62.927 48.6169 63.1004 48.4339 63.2462C48.2526 63.3929 48.0365 63.5093 47.7982 63.5886C47.5599 63.6679 47.3042 63.7086 47.0459 63.7083ZM41.8578 58.4742C41.4964 58.4742 41.2015 58.7093 41.2015 58.9976V62.1381C41.2019 62.2768 41.2712 62.4098 41.3942 62.5079C41.5172 62.606 41.6839 62.6612 41.8578 62.6614H47.0459C47.1312 62.6615 47.2156 62.6479 47.2941 62.6216C47.3727 62.5952 47.4439 62.5566 47.5035 62.5081C47.5639 62.4602 47.6117 62.4031 47.644 62.3403C47.6764 62.2775 47.6926 62.2101 47.6919 62.1422L47.6636 59.0017C47.662 58.8615 47.5912 58.7274 47.4664 58.6287C47.3416 58.5299 47.173 58.4744 46.9972 58.4742H41.8578ZM36.608 63.7083H31.0097C30.4804 63.7083 29.9871 63.5417 29.623 63.2401C29.2589 62.9395 29.0693 62.5408 29.0885 62.1197L29.232 58.9771C29.2731 58.1226 30.1765 57.4273 31.248 57.4273H36.608C37.6936 57.4273 38.5767 58.1317 38.5767 58.9975V62.138C38.5767 63.0039 37.6937 63.7083 36.608 63.7083ZM31.2482 58.4742C30.8804 58.4742 30.5575 58.7226 30.5445 59.0161L30.401 62.1587C30.3971 62.2239 30.4099 62.289 30.4385 62.3502C30.4672 62.4113 30.5111 62.4672 30.5677 62.5143C30.625 62.5615 30.6938 62.5989 30.7698 62.6242C30.8458 62.6495 30.9275 62.6622 31.0098 62.6616H36.608C36.9643 62.6616 37.2642 62.4223 37.2642 62.1382V58.9978C37.2642 58.7135 36.9643 58.4743 36.608 58.4743H31.2482V58.4742ZM19.5415 71.0329C19.0109 71.0329 18.5212 70.8663 18.1624 70.5627C17.8034 70.2591 17.6241 69.8593 17.6548 69.4371L17.8842 66.2926C17.947 65.4451 18.8635 64.755 19.9284 64.755H25.6907C26.2202 64.755 26.7124 64.9207 27.0763 65.2222C27.4401 65.5238 27.63 65.9226 27.6106 66.3437L27.4697 69.4575C27.4287 70.3121 26.5252 71.0092 25.4548 71.0123L19.5489 71.0328L19.5415 71.0329ZM19.9285 65.8019C19.553 65.8019 19.216 66.0545 19.1942 66.354L18.9647 69.4984C18.9557 69.6303 19.0095 69.753 19.1173 69.844C19.2249 69.936 19.3761 69.9861 19.5415 69.9861V70.5096L19.5441 69.9861L25.4501 69.9657C25.8204 69.9647 26.1447 69.7142 26.1575 69.4198L26.2984 66.306C26.3048 66.17 26.2459 66.0443 26.1317 65.9491C26.0746 65.9021 26.006 65.8647 25.9302 65.8394C25.8544 65.8141 25.7729 65.8014 25.6907 65.8019H19.9285ZM58.2629 71.0359L52.357 71.0318C51.2727 71.0308 50.3858 70.3276 50.3781 69.4647L50.2268 51.6729C50.2245 51.4667 50.2738 51.2623 50.3717 51.0715C50.4697 50.8807 50.6143 50.7074 50.7972 50.5618C50.9785 50.4151 51.1946 50.2987 51.433 50.2194C51.6713 50.1401 51.927 50.0994 52.1852 50.0997H57.5784C58.655 50.0997 59.5536 50.798 59.5831 51.6556L60.1957 69.4515C60.2036 69.6578 60.1592 69.8634 60.0652 70.0557C59.9711 70.2481 59.8294 70.4233 59.6484 70.571C59.4685 70.7187 59.2531 70.8361 59.015 70.916C58.777 70.9959 58.5212 71.0366 58.2629 71.0359ZM52.1854 51.1466C52.1001 51.1466 52.0158 51.1601 51.9372 51.1864C51.8586 51.2128 51.7874 51.2514 51.7278 51.3C51.6674 51.3478 51.6196 51.4049 51.5873 51.4677C51.555 51.5306 51.5387 51.5979 51.5395 51.6658L51.6907 69.4576C51.6933 69.748 51.9931 69.9841 52.3585 69.9851L58.2631 69.9892C58.4322 69.9892 58.5912 69.936 58.7078 69.8398C58.7662 69.7925 58.8119 69.7362 58.8421 69.6743C58.8723 69.6125 58.8863 69.5463 58.8834 69.48L58.2708 51.6842C58.2618 51.3929 57.944 51.1466 57.5786 51.1466H52.1854ZM47.1075 71.0359H41.8578C40.7722 71.0359 39.8892 70.3316 39.8892 69.4657V66.3254C39.8892 65.4595 40.7722 64.755 41.8578 64.755H47.0587C48.1419 64.755 49.03 65.4574 49.0377 66.3213L49.0659 69.4617C49.0683 69.668 49.0191 69.8727 48.9212 70.0637C48.8232 70.2547 48.6785 70.4281 48.4954 70.574C48.3141 70.7206 48.098 70.8369 47.8597 70.9162C47.6214 70.9956 47.3657 71.0362 47.1075 71.0359ZM41.8578 65.8019C41.4964 65.8019 41.2015 66.0371 41.2015 66.3254V69.4657C41.2015 69.754 41.4962 69.9892 41.8578 69.9892H47.1075C47.1927 69.9892 47.2771 69.9756 47.3557 69.9493C47.4342 69.923 47.5054 69.8844 47.565 69.8358C47.6254 69.7879 47.6732 69.7308 47.7055 69.6679C47.7379 69.6051 47.7541 69.5377 47.7534 69.4698L47.7252 66.3294C47.7236 66.1892 47.6527 66.0552 47.5279 65.9564C47.4031 65.8576 47.2345 65.8021 47.0587 65.8019H41.8578ZM36.608 71.0359H30.702C30.1726 71.0359 29.6793 70.8693 29.3152 70.5678C28.9512 70.2672 28.7615 69.8685 28.7807 69.4474L28.9243 66.3049C28.9653 65.4503 29.8689 64.755 30.9403 64.755H36.608C37.6936 64.755 38.5767 65.4595 38.5767 66.3254V69.4657C38.5767 70.3316 37.6937 71.0359 36.608 71.0359ZM30.9406 65.8019C30.5728 65.8019 30.2499 66.0503 30.2369 66.3438L30.0934 69.4863C30.0895 69.5515 30.1022 69.6167 30.1309 69.6778C30.1596 69.739 30.2035 69.7949 30.2601 69.8421C30.3174 69.8892 30.3861 69.9266 30.4622 69.9519C30.5382 69.9772 30.6198 69.9899 30.7022 69.9893H36.608C36.9643 69.9893 37.2642 69.7501 37.2642 69.4658V66.3255C37.2642 66.0413 36.9643 65.8021 36.608 65.8021H30.9406V65.8019ZM46.9844 56.3806H41.8578C40.7722 56.3806 39.8892 55.6762 39.8892 54.8104V51.6699C39.8892 50.8041 40.7722 50.0997 41.8578 50.0997H46.9357C48.0188 50.0997 48.9069 50.802 48.9146 51.6658L48.9428 54.8063C48.9453 55.0126 48.8961 55.2173 48.7982 55.4082C48.7002 55.5992 48.5555 55.7727 48.3726 55.9185C48.1912 56.0652 47.9751 56.1815 47.7367 56.2609C47.4984 56.3402 47.2427 56.3809 46.9844 56.3806ZM41.8578 51.1466C41.4964 51.1466 41.2015 51.3817 41.2015 51.6699V54.8104C41.2015 55.0987 41.4962 55.3338 41.8578 55.3338H46.9844C47.0697 55.3339 47.154 55.3203 47.2326 55.294C47.3112 55.2676 47.3824 55.229 47.442 55.1805C47.5024 55.1325 47.5501 55.0755 47.5825 55.0126C47.6148 54.9498 47.6311 54.8824 47.6303 54.8144L47.6021 51.6739C47.6005 51.5338 47.5296 51.3997 47.4048 51.301C47.2801 51.2022 47.1115 51.1467 46.9357 51.1466H41.8578Z" fill="black"/>
<path d="M26.0678 56.3805H20.531C19.9991 56.3805 19.5071 56.2128 19.1481 55.9091C18.7892 55.6045 18.6085 55.2048 18.6392 54.7816L18.8686 51.6371C18.9314 50.7896 19.8477 50.0996 20.9128 50.0996H26.306C26.8355 50.0996 27.3276 50.2653 27.6915 50.5668C28.0556 50.8684 28.2452 51.2671 28.2259 51.6881L28.0836 54.8297C28.043 55.6853 27.1395 56.3805 26.0678 56.3805ZM20.913 51.1465C20.5374 51.1465 20.2004 51.399 20.1786 51.6985L19.9493 54.843C19.9402 54.9749 19.994 55.0986 20.1031 55.1906C20.2121 55.2826 20.3645 55.3337 20.5312 55.3337H26.068C26.4358 55.3337 26.7588 55.0854 26.7716 54.7918L26.9139 51.6503C26.9203 51.5143 26.8614 51.3887 26.7472 51.2936C26.69 51.2465 26.6214 51.2092 26.5456 51.1839C26.4698 51.1585 26.3884 51.1458 26.3062 51.1464H20.913V51.1465Z" fill="black"/>
<path d="M36.6081 56.3806H31.3175C30.788 56.3806 30.2947 56.214 29.9308 55.9124C29.5667 55.6118 29.3771 55.2132 29.3963 54.792L29.5398 51.6494C29.5809 50.7949 30.4843 50.0996 31.5558 50.0996H36.6081C37.6937 50.0996 38.5769 50.804 38.5769 51.6698V54.8103C38.5769 55.6762 37.6939 56.3806 36.6081 56.3806ZM31.556 51.1466C31.1882 51.1466 30.8651 51.395 30.8523 51.6884L30.7088 54.831C30.7049 54.8962 30.7177 54.9614 30.7463 55.0225C30.775 55.0837 30.8189 55.1396 30.8755 55.1868C30.9328 55.2339 31.0016 55.2713 31.0776 55.2966C31.1536 55.3219 31.2353 55.3346 31.3176 55.334H36.6081C36.9645 55.334 37.2644 55.0948 37.2644 54.8105V51.6701C37.2644 51.386 36.9645 51.1467 36.6081 51.1467H31.556V51.1466Z" fill="black"/>
<path d="M58.2452 39.8935H19.7236C19.6359 39.8935 19.549 39.8794 19.4682 39.8521C19.3874 39.8248 19.3143 39.7848 19.2532 39.7345C19.1919 39.6843 19.1438 39.6248 19.1118 39.5595C19.0799 39.4941 19.0648 39.4243 19.0674 39.3542L19.3135 32.8117C19.3188 32.6757 19.3903 32.5467 19.5127 32.4519C19.6352 32.3572 19.7991 32.3042 19.9697 32.3042H58.0297C58.2009 32.3041 58.3653 32.3573 58.4879 32.4525C58.6105 32.5477 58.6816 32.6773 58.686 32.8138L58.9012 39.3563C58.9032 39.4262 58.8878 39.4957 58.8559 39.5608C58.824 39.6259 58.7762 39.6853 58.7154 39.7356C58.654 39.7855 58.5809 39.8251 58.5002 39.8522C58.4194 39.8793 58.3328 39.8934 58.2452 39.8935ZM20.4002 38.8466H57.5709L57.3901 33.3508H20.6066L20.4002 38.8466Z" fill="black"/>
<path d="M88.1208 61.6147C84.8638 61.6147 82.2148 59.5017 82.2148 56.904C82.2148 54.3063 84.8638 52.1934 88.1208 52.1934C91.3774 52.1934 94.0264 54.3063 94.0264 56.904C94.0264 59.5017 91.3774 61.6147 88.1208 61.6147ZM88.1208 53.2402C85.588 53.2402 83.527 54.8841 83.527 56.904C83.527 58.924 85.588 60.5678 88.1208 60.5678C90.6532 60.5678 92.7142 58.924 92.7142 56.904C92.7142 54.8841 90.6532 53.2402 88.1208 53.2402Z" fill="black"/>
<path d="M88.1208 63.7082C84.8638 63.7082 82.2148 61.5952 82.2148 58.9976C82.2148 58.7082 82.5084 58.4741 82.8711 58.4741C82.9573 58.4741 83.0426 58.4876 83.1222 58.5139C83.2018 58.5402 83.2741 58.5788 83.3351 58.6274C83.396 58.676 83.4443 58.7337 83.4772 58.7972C83.5102 58.8608 83.5271 58.9288 83.527 58.9976C83.527 61.0176 85.588 62.6614 88.1208 62.6614C90.6532 62.6614 92.7142 61.0175 92.7142 58.9976C92.7142 58.7082 93.0077 58.4741 93.3704 58.4741C93.4566 58.4741 93.5419 58.4876 93.6215 58.5139C93.7012 58.5402 93.7735 58.5788 93.8344 58.6274C93.8953 58.676 93.9436 58.7337 93.9766 58.7972C94.0095 58.8608 94.0264 58.9288 94.0264 58.9976C94.0265 61.5952 91.3774 63.7082 88.1208 63.7082Z" fill="black"/>
<path d="M82.8711 59.5211C82.5084 59.5211 82.2148 59.287 82.2148 58.9977V56.9041C82.2148 56.6147 82.5084 56.3806 82.8711 56.3806C82.9573 56.3806 83.0426 56.3941 83.1222 56.4204C83.2018 56.4467 83.2741 56.4853 83.3351 56.5339C83.396 56.5825 83.4443 56.6402 83.4772 56.7037C83.5102 56.7673 83.5271 56.8353 83.527 56.9041V58.9977C83.527 59.287 83.2335 59.5211 82.8711 59.5211Z" fill="black"/>
<path d="M93.3705 59.5211C93.0077 59.5211 92.7142 59.287 92.7142 58.9977V56.9041C92.7142 56.6147 93.0077 56.3806 93.3705 56.3806C93.4567 56.3806 93.542 56.3941 93.6216 56.4204C93.7012 56.4467 93.7735 56.4853 93.8345 56.5339C93.8954 56.5825 93.9437 56.6402 93.9766 56.7037C94.0095 56.7673 94.0265 56.8353 94.0264 56.9041V58.9977C94.0265 59.0664 94.0095 59.1345 93.9766 59.198C93.9437 59.2615 93.8954 59.3192 93.8345 59.3678C93.7735 59.4164 93.7012 59.455 93.6216 59.4813C93.542 59.5076 93.4567 59.5211 93.3705 59.5211Z" fill="black"/>
<path d="M88.1208 58.4743C87.758 58.4743 87.4645 58.2402 87.4645 57.951V55.8573C87.4645 55.7885 87.4814 55.7205 87.5144 55.657C87.5474 55.5934 87.5957 55.5357 87.6567 55.4871C87.7176 55.4385 87.79 55.4 87.8696 55.3737C87.9493 55.3474 88.0346 55.3339 88.1208 55.334C88.2069 55.334 88.2923 55.3475 88.3719 55.3738C88.4515 55.4001 88.5238 55.4386 88.5847 55.4872C88.6456 55.5358 88.6939 55.5935 88.7269 55.657C88.7598 55.7205 88.7768 55.7886 88.7767 55.8573V57.951C88.7768 58.0198 88.7598 58.0878 88.7269 58.1513C88.6939 58.2148 88.6456 58.2725 88.5847 58.3211C88.5238 58.3697 88.4515 58.4083 88.3719 58.4345C88.2923 58.4608 88.2069 58.4744 88.1208 58.4743Z" fill="black"/>
<path d="M80.2461 78.3637C75.5424 78.3637 71.7155 75.3112 71.7155 71.5594C71.7155 67.8077 75.5424 64.7551 80.2461 64.7551C84.9498 64.7551 88.7767 67.8077 88.7767 71.5594C88.7767 75.3112 84.9498 78.3637 80.2461 78.3637ZM80.2461 65.802C76.2666 65.802 73.0277 68.3852 73.0277 71.5594C73.0277 74.7337 76.2666 77.3168 80.2461 77.3168C84.2256 77.3168 87.4645 74.7337 87.4645 71.5594C87.4645 68.3852 84.2256 65.802 80.2461 65.802Z" fill="black"/>
<path d="M80.2461 80.4574C75.5424 80.4574 71.7155 77.4048 71.7155 73.6531C71.7155 73.3637 72.009 73.1296 72.3718 73.1296C72.4579 73.1296 72.5433 73.1432 72.6229 73.1695C72.7025 73.1958 72.7748 73.2343 72.8357 73.2829C72.8967 73.3315 72.945 73.3893 72.9779 73.4528C73.0108 73.5163 73.0277 73.5843 73.0277 73.6531C73.0277 76.8272 76.2666 79.4105 80.2461 79.4105C84.2256 79.4105 87.4645 76.8272 87.4645 73.6531C87.4645 73.3637 87.758 73.1296 88.1208 73.1296C88.2069 73.1296 88.2923 73.1432 88.3719 73.1695C88.4515 73.1958 88.5238 73.2343 88.5848 73.2829C88.6457 73.3315 88.694 73.3893 88.7269 73.4528C88.7598 73.5163 88.7768 73.5843 88.7767 73.6531C88.7767 77.4048 84.9498 80.4574 80.2461 80.4574Z" fill="black"/>
<path d="M80.2461 74.1765C79.8834 74.1765 79.5898 73.9424 79.5898 73.6531V69.4658C79.5898 69.1765 79.8834 68.9424 80.2461 68.9424C80.6088 68.9424 80.9023 69.1765 80.9023 69.4658V73.6531C80.9023 73.9424 80.6088 74.1765 80.2461 74.1765Z" fill="black"/>
<path d="M88.1208 74.1764C87.758 74.1764 87.4645 73.9423 87.4645 73.6529V71.5593C87.4645 71.27 87.758 71.0359 88.1208 71.0359C88.207 71.0359 88.2923 71.0494 88.3719 71.0757C88.4515 71.102 88.5238 71.1406 88.5848 71.1892C88.6457 71.2378 88.694 71.2955 88.7269 71.359C88.7599 71.4225 88.7768 71.4906 88.7767 71.5593V73.6529C88.7767 73.9423 88.4832 74.1764 88.1208 74.1764Z" fill="black"/>
<path d="M72.3718 74.1764C72.009 74.1764 71.7155 73.9423 71.7155 73.6529V71.5593C71.7155 71.27 72.009 71.0359 72.3718 71.0359C72.4579 71.0359 72.5433 71.0494 72.6229 71.0757C72.7025 71.102 72.7748 71.1406 72.8357 71.1892C72.8967 71.2378 72.945 71.2955 72.9779 71.359C73.0108 71.4225 73.0277 71.4906 73.0277 71.5593V73.6529C73.0277 73.9423 72.7342 74.1764 72.3718 74.1764Z" fill="black"/>
</svg>
