<svg width="100" height="100" viewBox="0 0 100 100" fill="none" xmlns="http://www.w3.org/2000/svg">
<circle cx="50" cy="50" r="50" fill="white"/>
<g filter="url(#filter0_di_33_19)">
<path d="M47.4984 52.3866C47.3404 54.0461 46.0879 55.4349 44.4516 55.6347C43.9663 55.6937 43.4811 55.6465 43.0411 55.4936C42.8718 55.4466 42.7025 55.3759 42.5333 55.3054C41.4951 54.7758 40.7278 53.7402 40.5811 52.469L40.3217 50.233L39.4077 42.3125L39.1255 39.8292L38.6628 35.7571L38.2454 32.2029L38.0986 30.8966V30.8849L37.399 24.8356L36.2254 14.6555L35.7853 10.8425L35.4693 8.05319C35.2436 6.07603 36.6089 4.26364 38.5048 4.02832C40.378 3.78107 42.1045 5.18159 42.3641 7.11155C42.3641 7.13507 42.3754 7.17051 42.3754 7.19403L42.4883 8.13566L44.181 22.882L45.1062 30.8849V30.8966L45.253 32.2029L45.6591 35.7571L46.1331 39.8292L46.4153 42.3125L47.3293 50.233L47.3405 50.2918L47.4873 51.5981C47.5211 51.8687 47.5211 52.1276 47.4984 52.3866Z" fill="#FFFBF2"/>
<path d="M50.5001 22.8821V35.7574H31.5761C31.5761 34.5334 31.7454 33.3329 32.0614 32.2032C32.1855 31.756 32.3208 31.3205 32.4903 30.8969C32.4903 30.8851 32.4903 30.8851 32.5015 30.8851C33.1222 29.2963 34.0475 27.8605 35.1984 26.6602C35.8642 25.9657 36.5976 25.3537 37.3988 24.8359C39.3059 23.6001 41.5289 22.8822 43.9212 22.8822L50.5001 22.8821Z" fill="#A18754"/>
<path d="M69.4238 35.7574H50.5V22.8821H57.0789C61.5475 22.8821 65.4745 25.3888 67.6411 29.1196L67.878 29.5432C67.9571 29.6845 68.0247 29.8375 68.1037 29.9905C68.1713 30.1318 68.2391 30.273 68.3067 30.4259C68.3744 30.5789 68.4309 30.7319 68.4986 30.885V30.8967H68.5098C68.6678 31.3203 68.8145 31.7559 68.9386 32.203C69.2545 33.3329 69.4238 34.5217 69.4238 35.7574Z" fill="#A18754"/>
<path d="M72.64 39.8291L72.4822 42.3122L71.9969 50.2329L70.5186 74.559L69.5706 89.9999H31.4181L31.3167 88.2933L30.4816 74.559L30.098 68.2745L29.0258 50.6329L29.0033 50.2329L28.518 42.3122L28.36 39.8291H72.64Z" fill="#FFFBF2"/>
<path d="M71.9968 50.2332L70.5185 74.5593H30.4815L30.0979 68.2747L29.0258 50.6331L29.0032 50.2332H71.9968Z" fill="#54B785"/>
<path d="M50.4996 72.2912C55.9009 72.2912 60.2796 67.7245 60.2796 62.0913C60.2796 56.458 55.9009 51.8914 50.4996 51.8914C45.0983 51.8914 40.7196 56.458 40.7196 62.0913C40.7196 67.7245 45.0983 72.2912 50.4996 72.2912Z" fill="#FFFBF2"/>
<path d="M78 42.3122H23L23.79 32.2853C23.79 32.0028 23.9141 31.732 24.1285 31.5084C24.2752 31.3556 24.4558 31.2259 24.6703 31.1318C24.9072 31.0141 25.1781 30.9436 25.4714 30.9081C25.573 30.8848 25.6745 30.8848 25.7761 30.8848H75.2242C75.3257 30.8848 75.4273 30.8848 75.529 30.9081C75.6306 30.9199 75.7208 30.9316 75.8111 30.9553C75.9917 31.0025 76.1722 31.0495 76.3302 31.1318C76.5446 31.2259 76.7251 31.3556 76.8718 31.5084C77.0862 31.7322 77.2104 32.0028 77.2104 32.2853L77.3005 33.4268L77.5827 36.9458L78 42.3122Z" fill="#B49258"/>
<path opacity="0.06" d="M78 42.3124H77.8985L77.2102 33.5916C77.2102 33.4739 77.1876 33.3681 77.1426 33.2621C77.0409 32.9327 76.7589 32.6619 76.3864 32.4736C76.0591 32.2971 75.653 32.203 75.2241 32.203H25.7759C24.6812 32.203 23.7898 32.8269 23.7898 33.5916L23.1015 42.3124H23L23.79 32.2855C23.79 32.003 23.9141 31.7322 24.1285 31.5086C24.2752 31.3675 24.4558 31.238 24.6703 31.1321C24.9072 31.0143 25.1781 30.9438 25.4714 30.9083C25.573 30.8967 25.6745 30.8967 25.7761 30.8967H75.2242C75.3257 30.8967 75.4273 30.9083 75.529 30.9083C75.6306 30.9201 75.7208 30.9318 75.8111 30.9555C75.9917 31.0027 76.1722 31.0497 76.3302 31.1321C76.5446 31.2379 76.7251 31.3675 76.8718 31.5086C77.0862 31.7324 77.2104 32.003 77.2104 32.2855L77.3005 33.427L77.5827 36.946L78 42.3124Z" fill="#FFFBF2"/>
<path d="M48.2237 65.8353C48.0358 64.941 47.823 63.9275 48.5019 62.5594C49.1805 61.1915 50.0969 60.7875 50.9054 60.4311C51.6745 60.0919 52.3386 59.7992 52.8719 58.7245C53.4051 57.6498 53.2508 56.9153 53.0721 56.0647C52.9708 55.5828 52.8635 55.0656 52.8912 54.4777C49.6507 53.4546 45.8905 55.2679 44.0769 58.9227C42.0608 62.9859 43.2145 67.7846 46.6536 69.6406C46.7399 69.6873 46.8274 69.7298 46.915 69.772C47.3286 69.5106 47.7003 69.1471 48.0235 68.4956C48.5568 67.4206 48.4025 66.6859 48.2237 65.8353Z" fill="#B49258"/>
<path d="M56.5312 65.6444C58.5472 61.5813 57.3936 56.7826 53.9545 54.9265C53.8921 54.8929 53.8288 54.863 53.7659 54.8318C53.7837 55.1793 53.8533 55.5141 53.9279 55.8688C54.1158 56.7631 54.3288 57.7766 53.6501 59.1446C52.9712 60.5125 52.055 60.9165 51.2465 61.2729C50.4775 61.612 49.8135 61.9048 49.2802 62.9795C48.7468 64.0543 48.9012 64.789 49.08 65.6396C49.2678 66.5338 49.4807 67.5474 48.8019 68.9155C48.5324 69.4583 48.2255 69.8479 47.9027 70.1445C51.1001 71.0425 54.7522 69.2296 56.5312 65.6444Z" fill="#B49258"/>
<path opacity="0.07" d="M77.9999 42.3122H72.4821L71.9968 50.2327L70.5185 74.559L69.5705 89.9999H31.418L31.3164 88.2933L30.4813 74.5592L30.0977 68.2744L67.6408 29.1194L67.8777 29.543C67.9568 29.6843 68.0244 29.8373 68.1033 29.9903C68.171 30.1316 68.2388 30.2728 68.3064 30.4257C68.3741 30.5787 68.4306 30.7317 68.4982 30.8847V30.8965H75.2237C75.4268 30.8965 75.6299 30.9198 75.8104 30.9553C75.9909 31.0025 76.1715 31.0495 76.3295 31.1318C76.5438 31.2376 76.7244 31.3673 76.8711 31.5084C77.0855 31.7321 77.2096 32.0027 77.2096 32.2853L77.2998 33.4268L77.582 36.9457L77.9999 42.3122Z" fill="#040000"/>
</g>
<defs>
<filter id="filter0_di_33_19" x="19" y="4" width="63" height="94" filterUnits="userSpaceOnUse" color-interpolation-filters="sRGB">
<feFlood flood-opacity="0" result="BackgroundImageFix"/>
<feColorMatrix in="SourceAlpha" type="matrix" values="0 0 0 0 0 0 0 0 0 0 0 0 0 0 0 0 0 0 127 0" result="hardAlpha"/>
<feOffset dy="4"/>
<feGaussianBlur stdDeviation="2"/>
<feComposite in2="hardAlpha" operator="out"/>
<feColorMatrix type="matrix" values="0 0 0 0 0 0 0 0 0 0 0 0 0 0 0 0 0 0 0.7 0"/>
<feBlend mode="normal" in2="BackgroundImageFix" result="effect1_dropShadow_33_19"/>
<feBlend mode="normal" in="SourceGraphic" in2="effect1_dropShadow_33_19" result="shape"/>
<feColorMatrix in="SourceAlpha" type="matrix" values="0 0 0 0 0 0 0 0 0 0 0 0 0 0 0 0 0 0 127 0" result="hardAlpha"/>
<feOffset dy="4"/>
<feGaussianBlur stdDeviation="2"/>
<feComposite in2="hardAlpha" operator="arithmetic" k2="-1" k3="1"/>
<feColorMatrix type="matrix" values="0 0 0 0 0 0 0 0 0 0 0 0 0 0 0 0 0 0 0.25 0"/>
<feBlend mode="normal" in2="shape" result="effect2_innerShadow_33_19"/>
</filter>
</defs>
</svg>
