<svg width="100" height="100" viewBox="0 0 100 100" fill="none" xmlns="http://www.w3.org/2000/svg">
<circle cx="50" cy="50" r="50" fill="white"/>
<path d="M35.0428 53.9852C44.7759 53.9852 52.6924 45.6876 52.6924 35.4926C52.6924 25.2957 44.7759 17 35.0428 17C25.3149 17 17.4037 25.2957 17.4037 35.4926C17.4037 45.6876 25.3149 53.9852 35.0428 53.9852Z" fill="#647F94"/>
<path d="M50.1959 51.6479C47.4112 54.5079 43.8922 56.5755 39.9656 57.537L44.0626 79.3987C44.2172 80.1683 43.9423 80.9589 43.3537 81.4479L41.5916 82.915C46.5056 82.3044 51.8289 80.9708 57.4088 78.5377V62.311C57.4088 57.5023 55.0247 54.0116 50.1959 51.6479Z" fill="#647F94"/>
<path d="M34.3119 58.3196L30.51 78.9958L35.2062 82.9041L39.8935 78.9976L36.0328 58.3196H34.3119Z" fill="#6EC4A7"/>
<path d="M30.3694 57.6038C26.3497 56.6715 22.7481 54.5756 19.9089 51.6626C15.2831 54.0208 13 57.506 13 62.311V78.6172C15.2233 79.6921 20.949 82.1143 28.913 83L27.0516 81.4507C26.4665 80.9635 26.1889 80.1729 26.3409 79.4051L30.3694 57.6038Z" fill="#647F94"/>
<path d="M75.2613 22.623C66.0359 22.623 58.5314 30.4334 58.5314 40.0362C58.5314 49.6371 66.0359 57.4493 75.2613 57.4493C84.4902 57.4493 92 49.6371 92 40.0362C91.9991 30.4325 84.4902 22.623 75.2613 22.623ZM82.0639 42.4775H68.1099C66.895 42.4775 65.9085 41.4529 65.9085 40.187C65.9085 38.9229 66.895 37.8983 68.1099 37.8983H82.0639C83.2788 37.8983 84.2636 38.9229 84.2636 40.187C84.2636 41.4529 83.2788 42.4775 82.0639 42.4775Z" fill="#6EC4A7"/>
</svg>
