<svg width="100" height="100" viewBox="0 0 100 100" fill="none" xmlns="http://www.w3.org/2000/svg">
<circle cx="50" cy="50" r="50" fill="white"/>
<g filter="url(#filter0_d_33_119)">
<path d="M73.7029 86.9999H20.663C20.5733 87 20.4846 86.9841 20.4022 86.9533C20.3198 86.9224 20.2455 86.8772 20.1839 86.8203C20.1219 86.7641 20.0737 86.6975 20.0422 86.6244C20.0107 86.5514 19.9966 86.4736 20.0007 86.3956L22.6527 35.5212C22.6581 35.4184 22.6948 35.3187 22.759 35.2323C22.8233 35.146 22.9129 35.0762 23.0185 35.0302C23.3041 34.9054 25.8525 33.813 27.293 33.813C28.1126 33.813 28.8578 34.1381 29.5785 34.4521C30.1884 34.7179 30.764 34.9692 31.2703 34.9692C31.7766 34.9692 32.3529 34.7179 32.9626 34.4521C33.684 34.1381 34.4292 33.813 35.2483 33.813C36.0673 33.813 36.8126 34.1381 37.5338 34.4521C38.1437 34.7179 38.7198 34.9692 39.2261 34.9692C39.7324 34.9692 40.3087 34.7179 40.9186 34.4521C41.6399 34.1381 42.3851 33.813 43.2041 33.813C44.023 33.813 44.7684 34.1375 45.4895 34.4521C46.0995 34.7179 46.6764 34.9692 47.1827 34.9692C47.689 34.9692 48.2653 34.7179 48.875 34.4521C49.5957 34.1381 50.3409 33.813 51.1605 33.813C51.9801 33.813 52.7248 34.1381 53.446 34.4521C54.0559 34.7179 54.6322 34.9692 55.1385 34.9692C55.6448 34.9692 56.221 34.7179 56.8309 34.4521C57.5523 34.1381 58.2968 33.813 59.1164 33.813C59.9361 33.813 60.6808 34.1381 61.4019 34.4521C62.0118 34.7179 62.5881 34.9692 63.0944 34.9692C63.6007 34.9692 64.177 34.7179 64.7869 34.4521C65.5082 34.1381 66.2527 33.813 67.0724 33.813C68.5135 33.813 71.0608 34.9054 71.3467 35.0302C71.4523 35.0762 71.5419 35.146 71.6061 35.2323C71.6703 35.3187 71.7069 35.4184 71.712 35.5212L74.3638 86.3956C74.3682 86.4735 74.3543 86.5514 74.3229 86.6244C74.2915 86.6975 74.2433 86.7642 74.1813 86.8203C74.1199 86.8772 74.0457 86.9225 73.9634 86.9534C73.8811 86.9842 73.7924 87.0001 73.7029 86.9999ZM21.3571 85.8436H73.0086L70.4059 35.9182C69.5306 35.5614 67.9016 34.9692 67.0729 34.9692C66.5664 34.9692 65.9903 35.2204 65.3804 35.4862C64.659 35.8002 63.9145 36.1253 63.0949 36.1253C62.2753 36.1253 61.5306 35.8002 60.8094 35.4862C60.1995 35.2204 59.6234 34.9692 59.1169 34.9692C58.6106 34.9692 58.0345 35.2204 57.4244 35.4862C56.7031 35.8002 55.9586 36.1253 55.139 36.1253C54.3193 36.1253 53.5746 35.8002 52.8535 35.4862C52.2436 35.2204 51.6675 34.9692 51.161 34.9692C50.6547 34.9692 50.0786 35.2204 49.4687 35.4862C48.748 35.8002 48.0028 36.1253 47.1832 36.1253C46.3636 36.1253 45.6184 35.8002 44.8969 35.4862C44.287 35.2204 43.7109 34.9692 43.2046 34.9692C42.6983 34.9692 42.122 35.2204 41.5122 35.4862C40.7909 35.8002 40.0457 36.1253 39.2266 36.1253C38.4076 36.1253 37.6623 35.8002 36.9411 35.4862C36.3312 35.2204 35.7549 34.9692 35.2488 34.9692C34.7423 34.9692 34.1662 35.2204 33.5563 35.4862C32.835 35.8002 32.0898 36.1253 31.2708 36.1253C30.4518 36.1253 29.7065 35.8008 28.986 35.4862C28.3761 35.2204 27.7998 34.9692 27.2935 34.9692C26.5347 34.9692 24.9775 35.5021 23.9598 35.9176L21.3571 85.8436Z" fill="black"/>
<path d="M71.0508 84.6875H23.315C23.2279 84.6876 23.1417 84.6726 23.0612 84.6436C22.9808 84.6146 22.9077 84.572 22.8461 84.5183C22.7846 84.4646 22.7357 84.4009 22.7024 84.3307C22.6691 84.2605 22.652 84.1854 22.652 84.1094C22.652 84.0335 22.6691 83.9583 22.7024 83.8882C22.7357 83.818 22.7846 83.7543 22.8461 83.7006C22.9077 83.6469 22.9808 83.6043 23.0612 83.5753C23.1417 83.5462 23.2279 83.5313 23.315 83.5313H71.0506C71.1377 83.5313 71.2239 83.5462 71.3044 83.5753C71.3848 83.6043 71.4579 83.6469 71.5195 83.7006C71.5811 83.7543 71.6299 83.818 71.6632 83.8882C71.6965 83.9583 71.7136 84.0335 71.7136 84.1094C71.7136 84.1853 71.6965 84.2605 71.6633 84.3307C71.63 84.4008 71.5812 84.4646 71.5196 84.5183C71.458 84.572 71.385 84.6145 71.3045 84.6436C71.2241 84.6726 71.1378 84.6876 71.0508 84.6875ZM52.2317 32.6568C52.1251 32.6569 52.0201 32.6346 51.9255 32.5917C51.8309 32.5488 51.7496 32.4867 51.6884 32.4105C51.6273 32.3344 51.5881 32.2465 51.5743 32.1543C51.5604 32.0621 51.5723 31.9684 51.6089 31.8811L57.8944 16.8231C58.5716 15.199 60.1333 13.9767 62.292 13.3806C64.3909 12.8019 66.8086 12.8855 69.1096 13.6153C74.0665 15.1871 75.3278 19.2039 74.0122 22.3594L71.2189 32.2178C71.1982 32.2915 71.1609 32.361 71.1093 32.4222C71.0577 32.4834 70.9927 32.5351 70.9182 32.5744C70.8436 32.6136 70.7608 32.6396 70.6747 32.6509C70.5885 32.6621 70.5007 32.6584 70.4162 32.64C70.2455 32.6031 70.0986 32.5087 70.0078 32.3774C69.917 32.2461 69.8896 32.0888 69.9317 31.9399L72.7457 22.0228C73.823 19.4293 72.9878 16.0757 68.6564 14.7015C66.6285 14.0586 64.5113 13.9828 62.692 14.483C60.9347 14.9678 59.6736 15.9395 59.1399 17.2183L52.8544 32.2763C52.8079 32.3878 52.7232 32.484 52.6118 32.5521C52.5004 32.6202 52.3677 32.6567 52.2317 32.6568Z" fill="black"/>
<path d="M70.1158 24.9699C70.0042 24.9701 69.8943 24.9456 69.7965 24.8987C69.6987 24.8518 69.6161 24.7841 69.5564 24.7018C69.5473 24.6905 68.4389 23.2441 65.4827 22.3075C62.5277 21.3697 60.6124 21.8553 60.5917 21.8592C60.2512 21.9513 59.8731 21.7824 59.7643 21.477C59.7123 21.3314 59.7286 21.1737 59.8097 21.0386C59.8908 20.9035 60.03 20.8019 60.1968 20.7561C60.2887 20.7295 62.5289 20.1374 65.9359 21.2213C69.3479 22.3024 70.6234 24.0096 70.6752 24.0819C70.7695 24.2112 70.8011 24.3679 70.763 24.5175C70.7249 24.6671 70.6202 24.7974 70.4719 24.8797C70.3653 24.9384 70.2419 24.9697 70.1158 24.9699ZM67.394 31.4894C67.2823 31.4895 67.1725 31.465 67.0746 31.4181C66.9768 31.3712 66.8942 31.3035 66.8344 31.2212C66.8253 31.2099 65.7171 29.7635 62.7622 28.8257C59.8019 27.8868 57.8919 28.3741 57.8712 28.3786C57.5345 28.4711 57.1525 28.3024 57.0438 27.9968C56.9917 27.8512 57.0079 27.6934 57.089 27.5582C57.17 27.4229 57.3093 27.3212 57.4762 27.2754C57.5693 27.2505 59.8071 26.6588 63.2152 27.7394C66.6259 28.8217 67.9016 30.5289 67.9533 30.6012C68.0171 30.6886 68.0528 30.7893 68.0567 30.8928C68.0605 30.9964 68.0324 31.0989 67.9752 31.1897C67.918 31.2805 67.8339 31.3562 67.7317 31.4089C67.6294 31.4616 67.5128 31.4894 67.394 31.4894ZM25.9664 32.6568C25.8069 32.6567 25.6528 32.6065 25.5323 32.5153C25.4119 32.4242 25.3331 32.2982 25.3106 32.1605L22.6585 15.9735C22.6462 15.8984 22.651 15.8218 22.6726 15.7482C22.6942 15.6747 22.7322 15.6055 22.7845 15.5448C22.8367 15.484 22.9022 15.4328 22.9771 15.3941C23.052 15.3554 23.135 15.33 23.2212 15.3193C23.5851 15.2713 23.9198 15.4937 23.9715 15.8099L26.6236 31.997C26.637 32.0791 26.63 32.1627 26.6031 32.2422C26.5762 32.3217 26.53 32.3952 26.4677 32.4577C26.4054 32.5203 26.3284 32.5705 26.2419 32.6048C26.1554 32.6392 26.0614 32.6569 25.9664 32.6568Z" fill="black"/>
<path d="M29.9444 32.6567C29.7953 32.6566 29.6507 32.6127 29.5338 32.5321C29.4169 32.4515 29.3346 32.3389 29.3001 32.2125C29.2671 32.0922 25.9775 20.1359 22.7759 16.2274C22.7253 16.1656 22.6891 16.0958 22.6695 16.0219C22.6498 15.9479 22.647 15.8713 22.6614 15.7965C22.6757 15.7216 22.7067 15.6499 22.7528 15.5855C22.7989 15.5211 22.8591 15.4653 22.9299 15.4212C23.0007 15.377 23.0808 15.3454 23.1656 15.3282C23.2504 15.311 23.3383 15.3086 23.4241 15.3211C23.51 15.3336 23.5922 15.3607 23.6661 15.4009C23.7399 15.4411 23.8039 15.4937 23.8545 15.5555C27.2064 19.6475 30.4535 31.4446 30.5901 31.9447C30.6133 32.0297 30.6141 32.1182 30.5925 32.2035C30.5709 32.2888 30.5274 32.3687 30.4652 32.4372C30.4031 32.5058 30.3239 32.5611 30.2337 32.5991C30.1435 32.6371 30.0445 32.6568 29.9444 32.6567ZM33.9223 32.6567C33.7737 32.6565 33.6294 32.6128 33.5126 32.5325C33.3959 32.4523 33.3135 32.3401 33.2788 32.214C30.3102 21.4954 26.7595 16.2404 26.7238 16.1884C26.6337 16.0568 26.6071 15.8994 26.65 15.7508C26.6928 15.6022 26.8015 15.4745 26.9523 15.3957C27.0269 15.3567 27.1097 15.3309 27.1958 15.3197C27.2819 15.3086 27.3696 15.3123 27.4541 15.3308C27.5385 15.3493 27.6179 15.382 27.6878 15.4273C27.7577 15.4726 27.8166 15.5294 27.8613 15.5945C28.0108 15.8114 31.5453 21.0302 34.5671 31.9431C34.5875 32.0169 34.5912 32.0935 34.5777 32.1685C34.5642 32.2435 34.5339 32.3154 34.4885 32.3802C34.443 32.4449 34.3834 32.5012 34.313 32.5459C34.2426 32.5905 34.1628 32.6226 34.0782 32.6403C34.0272 32.6513 33.9748 32.6568 33.9223 32.6567Z" fill="black"/>
<path d="M26.6308 18.7822C26.5777 18.7822 26.5233 18.7766 26.4695 18.7647C26.385 18.7464 26.3055 18.7137 26.2355 18.6686C26.1655 18.6234 26.1064 18.5667 26.0616 18.5016C26.0168 18.4365 25.9872 18.3644 25.9744 18.2893C25.9616 18.2142 25.9659 18.1377 25.987 18.064L26.6502 15.7516C26.6709 15.6778 26.7082 15.6083 26.7599 15.5471C26.8116 15.486 26.8767 15.4343 26.9514 15.3952C27.0261 15.3561 27.109 15.3303 27.1952 15.3193C27.2814 15.3083 27.3693 15.3123 27.4537 15.331C27.5382 15.3494 27.6177 15.382 27.6877 15.4272C27.7576 15.4723 27.8167 15.5291 27.8615 15.5941C27.9063 15.6592 27.936 15.7314 27.9487 15.8065C27.9615 15.8815 27.9572 15.9581 27.936 16.0317L27.273 18.3442C27.2374 18.4692 27.1548 18.5803 27.0384 18.6596C26.922 18.739 26.7785 18.7821 26.6308 18.7822ZM49.8349 32.6567C49.7479 32.6568 49.6616 32.6418 49.5812 32.6128C49.5007 32.5838 49.4276 32.5412 49.3661 32.4875C49.3045 32.4338 49.2557 32.3701 49.2224 32.2999C49.1891 32.2298 49.1719 32.1546 49.172 32.0786V28.0319H37.2381V32.0786C37.2381 32.3983 36.9415 32.6567 36.5751 32.6567C36.2087 32.6567 35.9121 32.3983 35.9121 32.0786V27.4538C35.9121 27.3779 35.9292 27.3027 35.9625 27.2325C35.9958 27.1624 36.0447 27.0986 36.1062 27.045C36.1678 26.9913 36.2409 26.9487 36.3214 26.9196C36.4018 26.8906 36.488 26.8757 36.5751 26.8757H49.8349C49.922 26.8757 50.0082 26.8906 50.0887 26.9196C50.1692 26.9487 50.2423 26.9913 50.3038 27.045C50.3654 27.0986 50.4142 27.1624 50.4475 27.2325C50.4808 27.3027 50.498 27.3779 50.4979 27.4538V32.0786C50.498 32.1546 50.4808 32.2298 50.4475 32.2999C50.4142 32.3701 50.3654 32.4338 50.3038 32.4875C50.2423 32.5412 50.1692 32.5838 50.0887 32.6128C50.0082 32.6418 49.922 32.6568 49.8349 32.6567Z" fill="black"/>
<path d="M45.8569 32.6569C45.7698 32.6569 45.6836 32.642 45.6031 32.6129C45.5227 32.5839 45.4496 32.5413 45.388 32.4876C45.3265 32.4339 45.2776 32.3702 45.2443 32.3C45.211 32.2299 45.1939 32.1547 45.1939 32.0788C45.1939 31.1224 44.3017 30.3445 43.2049 30.3445C42.1081 30.3445 41.2158 31.1224 41.2158 32.0788C41.2158 32.1547 41.1987 32.2299 41.1654 32.3C41.1321 32.3702 41.0833 32.4339 41.0217 32.4876C40.9602 32.5413 40.8871 32.5839 40.8066 32.6129C40.7261 32.642 40.6399 32.6569 40.5528 32.6569C40.4658 32.6569 40.3795 32.642 40.2991 32.613C40.2186 32.5839 40.1455 32.5414 40.0839 32.4877C40.0223 32.434 39.9735 32.3702 39.9402 32.3001C39.9069 32.2299 39.8898 32.1547 39.8899 32.0788C39.8899 30.485 41.3771 29.1882 43.2049 29.1882C45.0326 29.1882 46.5199 30.485 46.5199 32.0788C46.5199 32.1547 46.5028 32.2299 46.4695 32.3C46.4362 32.3702 46.3874 32.4339 46.3258 32.4876C46.2642 32.5413 46.1911 32.5839 46.1107 32.6129C46.0302 32.642 45.944 32.6569 45.8569 32.6569ZM36.575 26.8759C36.4439 26.8759 36.3156 26.8421 36.2065 26.7786C36.0974 26.7151 36.0124 26.6248 35.9622 26.5191C35.912 26.4134 35.8989 26.2971 35.9245 26.185C35.9502 26.0728 36.0134 25.9698 36.1062 25.889L37.4323 24.7328C37.5566 24.6244 37.7252 24.5635 37.9011 24.5635C38.0769 24.5635 38.2455 24.6244 38.3698 24.7328C38.4941 24.8412 38.564 24.9882 38.564 25.1415C38.564 25.2948 38.4941 25.4419 38.3698 25.5503L37.0437 26.7064C36.9823 26.7602 36.9092 26.8029 36.8288 26.832C36.7483 26.861 36.6621 26.876 36.575 26.8759Z" fill="black"/>
<path d="M48.509 25.7196H37.901C37.5346 25.7196 37.238 25.4609 37.238 25.1415C37.238 24.822 37.5346 24.5632 37.901 24.5632H48.509C48.8754 24.5632 49.1719 24.8218 49.1719 25.1415C49.1719 25.4611 48.8754 25.7196 48.509 25.7196Z" fill="black"/>
<path d="M49.8349 26.8759C49.7478 26.8759 49.6616 26.861 49.5811 26.8319C49.5007 26.8028 49.4276 26.7602 49.3661 26.7064L48.04 25.5503C47.9784 25.4966 47.9296 25.4329 47.8963 25.3627C47.863 25.2926 47.8458 25.2174 47.8458 25.1415C47.8458 25.0656 47.863 24.9904 47.8963 24.9203C47.9296 24.8502 47.9784 24.7865 48.04 24.7328C48.1015 24.6791 48.1746 24.6365 48.255 24.6075C48.3355 24.5784 48.4217 24.5635 48.5087 24.5635C48.5958 24.5635 48.682 24.5784 48.7624 24.6075C48.8428 24.6365 48.9159 24.6791 48.9775 24.7328L50.3036 25.889C50.3964 25.9698 50.4596 26.0728 50.4852 26.1849C50.5109 26.2971 50.4978 26.4134 50.4476 26.519C50.3974 26.6247 50.3124 26.715 50.2034 26.7785C50.0943 26.842 49.9661 26.8759 49.8349 26.8759ZM39.2581 69.3429C39.0959 69.3428 38.9392 69.291 38.8178 69.1972C36.1283 67.1128 34.586 64.1206 34.586 60.985C34.586 54.9285 40.2369 50.0003 47.1829 50.0003C48.1235 50.0003 49.0612 50.0913 49.9702 50.2697C50.0551 50.2863 50.1354 50.3174 50.2066 50.3611C50.2777 50.4049 50.3383 50.4604 50.3848 50.5246C50.4314 50.5887 50.4629 50.6602 50.4777 50.735C50.4926 50.8098 50.4903 50.8865 50.4712 50.9605C50.3903 51.2722 50.0323 51.4688 49.6787 51.3975C48.8595 51.2375 48.0224 51.1568 47.1829 51.1569C40.9678 51.1569 35.9119 55.5651 35.9119 60.9849C35.9128 62.3731 36.2506 63.7455 36.9032 65.0118C37.5558 66.2781 38.5083 67.4097 39.6983 68.332C39.7987 68.41 39.8696 68.5127 39.9016 68.6265C39.9336 68.7404 39.9252 68.86 39.8774 68.9696C39.8297 69.0792 39.7449 69.1736 39.6343 69.2403C39.5237 69.3069 39.3925 69.3427 39.2581 69.3429ZM47.1829 71.9692C46.2405 71.9693 45.301 71.8776 44.382 71.6959C44.297 71.6791 44.2168 71.6478 44.1457 71.6039C44.0746 71.56 44.0142 71.5043 43.9678 71.44C43.9215 71.3758 43.8901 71.3041 43.8755 71.2293C43.8609 71.1544 43.8634 71.0778 43.8828 71.0037C43.9637 70.6922 44.318 70.4946 44.6759 70.5691C45.4986 70.7313 46.3394 70.8131 47.1829 70.8129C53.3973 70.8129 58.4538 66.4038 58.4538 60.9852C58.4528 59.6028 58.118 58.236 57.471 56.974C56.824 55.712 55.8793 54.5829 54.6987 53.6604C54.5675 53.5583 54.4883 53.4149 54.4784 53.2619C54.4684 53.1088 54.5286 52.9586 54.6456 52.8442C54.8929 52.606 55.3137 52.5868 55.5818 52.7991C56.9018 53.8299 57.958 55.0916 58.6813 56.5021C59.4046 57.9126 59.7789 59.4402 59.7797 60.9853C59.7797 67.0417 54.1287 71.9692 47.1829 71.9692Z" fill="black"/>
<path d="M49.8349 63.8753C49.7479 63.8754 49.6616 63.8604 49.5812 63.8314C49.5007 63.8023 49.4276 63.7596 49.3661 63.7059L44.0622 59.0809C44.0007 59.0272 43.9518 58.9635 43.9185 58.8934C43.8852 58.8232 43.8681 58.7481 43.8681 58.6722C43.8681 58.5963 43.8853 58.5211 43.9186 58.451C43.9519 58.3809 44.0007 58.3172 44.0623 58.2635C44.1238 58.2098 44.1969 58.1673 44.2773 58.1382C44.3578 58.1092 44.444 58.0942 44.531 58.0942C44.6181 58.0942 44.7043 58.1092 44.7847 58.1383C44.8651 58.1673 44.9382 58.2099 44.9997 58.2636L50.3038 62.8884C50.3966 62.9692 50.4598 63.0722 50.4855 63.1844C50.5111 63.2966 50.498 63.4129 50.4478 63.5185C50.3976 63.6242 50.3126 63.7145 50.2035 63.778C50.0944 63.8415 49.9661 63.8754 49.8349 63.8753Z" fill="black"/>
<path d="M44.531 59.2506C44.3998 59.2507 44.2716 59.2169 44.1624 59.1534C44.0533 59.0899 43.9683 58.9996 43.9181 58.8939C43.8679 58.7882 43.8548 58.672 43.8804 58.5598C43.9061 58.4476 43.9693 58.3446 44.0622 58.2638L57.322 46.7011C57.3836 46.6474 57.4566 46.6048 57.5371 46.5758C57.6175 46.5467 57.7037 46.5318 57.7907 46.5318C57.8778 46.5318 57.964 46.5467 58.0444 46.5758C58.1249 46.6048 58.1979 46.6474 58.2595 46.7011C58.3211 46.7547 58.3699 46.8185 58.4032 46.8886C58.4365 46.9587 58.4537 47.0339 58.4537 47.1098C58.4537 47.1857 58.4365 47.2609 58.4032 47.331C58.3699 47.4011 58.3211 47.4649 58.2595 47.5185L44.9997 59.0813C44.9382 59.135 44.8651 59.1777 44.7847 59.2067C44.7043 59.2358 44.6181 59.2507 44.531 59.2506ZM37.901 74.2815C37.7698 74.2816 37.6416 74.2478 37.5325 74.1843C37.4234 74.1208 37.3384 74.0305 37.2882 73.9248C37.238 73.8192 37.2249 73.7029 37.2506 73.5907C37.2762 73.4786 37.3395 73.3756 37.4323 73.2948L49.3662 62.8888C49.4905 62.7804 49.6592 62.7195 49.835 62.7195C50.0108 62.7195 50.1794 62.7804 50.3037 62.8888C50.4281 62.9972 50.4979 63.1442 50.4979 63.2975C50.4979 63.4508 50.4281 63.5979 50.3037 63.7063L38.3698 74.1121C38.3083 74.1659 38.2353 74.2085 38.1548 74.2376C38.0743 74.2667 37.9881 74.2816 37.901 74.2815ZM71.0508 36.1255C70.9478 36.1256 70.8462 36.1047 70.754 36.0645C70.6619 36.0244 70.5817 35.966 70.52 35.8941C70.4149 35.7713 70.3699 35.6172 70.3949 35.4656C70.4199 35.3139 70.5128 35.1771 70.6533 35.0851L75.9572 31.6164C76.0268 31.5708 76.1061 31.5375 76.1905 31.5186C76.2749 31.4997 76.3628 31.4955 76.449 31.5063C76.5353 31.5171 76.6183 31.5426 76.6932 31.5813C76.7681 31.6201 76.8336 31.6714 76.8857 31.7322C76.9909 31.855 77.0359 32.0091 77.0109 32.1607C76.9859 32.3124 76.8929 32.4492 76.7524 32.5412L71.4484 36.0098C71.329 36.0878 71.1894 36.1255 71.0508 36.1255ZM75.0288 84.6875C74.9259 84.6871 74.8245 84.6662 74.7322 84.6265C74.5751 84.5578 74.4556 84.4376 74.4 84.2922C74.3444 84.1467 74.3572 83.988 74.4356 83.8508L77.0877 79.226C77.2521 78.9393 77.6508 78.8263 77.9773 78.9674C78.1345 79.036 78.2541 79.1562 78.3097 79.3017C78.3653 79.4472 78.3524 79.6059 78.2738 79.7431L75.6218 84.3681C75.5666 84.464 75.4819 84.5447 75.3772 84.6011C75.2725 84.6575 75.1519 84.6874 75.0288 84.6875Z" fill="black"/>
<path d="M78.5638 81.2176C78.4547 81.2177 78.3472 81.1942 78.251 81.1493C78.1548 81.1043 78.0727 81.0394 78.0122 80.9602L77.1291 79.8052C77.0808 79.742 77.0472 79.6712 77.0303 79.5967C77.0134 79.5222 77.0135 79.4455 77.0305 79.3711C77.0476 79.2966 77.0813 79.2258 77.1298 79.1628C77.1783 79.0997 77.2405 79.0455 77.313 79.0034C77.6134 78.8262 78.0278 78.8963 78.2324 79.1638L79.1154 80.3189C79.1819 80.406 79.22 80.5072 79.2258 80.6116C79.2315 80.7161 79.2047 80.82 79.1481 80.9122C79.0915 81.0045 79.0073 81.0816 78.9044 81.1354C78.8015 81.1891 78.6838 81.2176 78.5638 81.2176ZM80.3314 83.5313C80.1637 83.5308 80.0023 83.4751 79.8798 83.3751C79.7573 83.2752 79.6828 83.1386 79.6711 82.9927L75.6931 32.1181C75.6812 31.9651 75.7395 31.8143 75.855 31.6987C75.9706 31.5831 76.134 31.5122 76.3095 31.5016C76.658 31.4824 76.9905 31.7201 77.0166 32.039L80.9945 82.9136C81.0061 83.0665 80.9478 83.2173 80.8323 83.3328C80.7168 83.4484 80.5535 83.5193 80.3781 83.5301C80.3626 83.5301 80.347 83.5313 80.3314 83.5313Z" fill="black"/>
<path d="M73.7029 87.0001C73.5883 87 73.4757 86.9741 73.3761 86.9248C73.2764 86.8755 73.1931 86.8046 73.1342 86.7189C73.0893 86.6539 73.0596 86.5817 73.0467 86.5066C73.0339 86.4315 73.0382 86.3549 73.0593 86.2813C73.0805 86.2077 73.1182 86.1384 73.1702 86.0775C73.2221 86.0165 73.2874 85.9652 73.3622 85.9263L79.9922 82.4576C80.0669 82.4179 80.1498 82.3914 80.2363 82.3798C80.3227 82.3682 80.411 82.3716 80.4959 82.3898C80.5809 82.4081 80.6608 82.4408 80.7312 82.4862C80.8015 82.5315 80.8609 82.5885 80.9058 82.654C80.9508 82.7194 80.9804 82.792 80.9931 82.8675C81.0057 82.943 81.001 83.0199 80.9794 83.0938C80.9578 83.1677 80.9195 83.2371 80.867 83.2981C80.8144 83.3591 80.7485 83.4104 80.6731 83.449L74.0432 86.9177C73.9371 86.973 73.8193 87.0001 73.7029 87.0001Z" fill="black"/>
<path d="M76.3548 32.6567H73.7029C73.3364 32.6567 73.0398 32.3982 73.0398 32.0786C73.0398 32.0026 73.0569 31.9274 73.0902 31.8573C73.1235 31.7871 73.1723 31.7234 73.2339 31.6697C73.2955 31.616 73.3686 31.5734 73.4491 31.5444C73.5296 31.5153 73.6158 31.5004 73.7029 31.5005H76.3548C76.4419 31.5005 76.5281 31.5154 76.6086 31.5444C76.689 31.5735 76.7621 31.616 76.8237 31.6697C76.8853 31.7234 76.9341 31.7872 76.9674 31.8573C77.0007 31.9275 77.0178 32.0026 77.0178 32.0786C77.0178 32.1545 77.0007 32.2297 76.9674 32.2999C76.9341 32.37 76.8853 32.4338 76.8237 32.4875C76.7622 32.5412 76.689 32.5837 76.6086 32.6128C76.5281 32.6418 76.4419 32.6567 76.3548 32.6567Z" fill="black"/>
</g>
<defs>
<filter id="filter0_d_33_119" x="16" y="13" width="69" height="82" filterUnits="userSpaceOnUse" color-interpolation-filters="sRGB">
<feFlood flood-opacity="0" result="BackgroundImageFix"/>
<feColorMatrix in="SourceAlpha" type="matrix" values="0 0 0 0 0 0 0 0 0 0 0 0 0 0 0 0 0 0 127 0" result="hardAlpha"/>
<feOffset dy="4"/>
<feGaussianBlur stdDeviation="2"/>
<feComposite in2="hardAlpha" operator="out"/>
<feColorMatrix type="matrix" values="0 0 0 0 0 0 0 0 0 0 0 0 0 0 0 0 0 0 0.25 0"/>
<feBlend mode="normal" in2="BackgroundImageFix" result="effect1_dropShadow_33_119"/>
<feBlend mode="normal" in="SourceGraphic" in2="effect1_dropShadow_33_119" result="shape"/>
</filter>
</defs>
</svg>
