<svg width="100" height="100" viewBox="0 0 100 100" fill="none" xmlns="http://www.w3.org/2000/svg">
<path d="M100 50C100 77.6142 77.6142 100 50 100C22.3858 100 0 77.6142 0 50C0 22.3858 22.3858 0 50 0C77.6142 0 100 22.3858 100 50Z" fill="white"/>
<path d="M100 50C100 77.6142 77.6142 100 50 100C22.3858 100 0 77.6142 0 50C0 22.3858 22.3858 0 50 0C77.6142 0 100 22.3858 100 50Z" fill="white"/>
<g filter="url(#filter0_d_35_127)">
<path d="M28.1014 44.4999C28.1014 50.1213 30.4437 55.5125 34.613 59.4874C38.7823 63.4624 44.4371 65.6955 50.3333 65.6955C56.2296 65.6955 61.8844 63.4624 66.0536 59.4874C70.2229 55.5125 72.5652 50.1213 72.5652 44.4999C72.5652 38.8784 70.2229 33.4872 66.0536 29.5123C61.8844 25.5373 56.2296 23.3042 50.3333 23.3042C44.4371 23.3042 38.7823 25.5373 34.613 29.5123C30.4437 33.4872 28.1014 38.8784 28.1014 44.4999Z" fill="#EFD358"/>
<path d="M16.1304 46.1304H12.7101C12.2566 46.1304 11.8216 45.9587 11.5009 45.6529C11.1802 45.3471 11 44.9324 11 44.5C11 44.0676 11.1802 43.6529 11.5009 43.3471C11.8216 43.0414 12.2566 42.8696 12.7101 42.8696H16.1304C16.584 42.8696 17.019 43.0414 17.3397 43.3471C17.6604 43.6529 17.8406 44.0676 17.8406 44.5C17.8406 44.9324 17.6604 45.3471 17.3397 45.6529C17.019 45.9587 16.584 46.1304 16.1304 46.1304ZM26.0493 22.9783C25.8247 22.9785 25.6022 22.9364 25.3947 22.8544C25.1873 22.7724 24.9988 22.6522 24.8402 22.5005L22.446 20.2179C22.2827 20.0675 22.1524 19.8876 22.0628 19.6887C21.9731 19.4898 21.926 19.2758 21.924 19.0594C21.922 18.8429 21.9653 18.6282 22.0513 18.4278C22.1373 18.2274 22.2642 18.0454 22.4248 17.8923C22.5854 17.7392 22.7763 17.6181 22.9865 17.5362C23.1967 17.4542 23.4218 17.4129 23.6489 17.4148C23.876 17.4167 24.1004 17.4617 24.309 17.5471C24.5177 17.6326 24.7064 17.7568 24.8641 17.9125L27.2584 20.1951C27.4974 20.4231 27.6603 20.7136 27.7262 21.0298C27.7922 21.3461 27.7583 21.6738 27.6289 21.9717C27.4995 22.2696 27.2804 22.5242 26.9992 22.7034C26.718 22.8825 26.3875 22.9782 26.0493 22.9783ZM50.3333 13.5217C50.1088 13.5217 49.8864 13.4796 49.6789 13.3976C49.4714 13.3157 49.2829 13.1956 49.1241 13.0442C48.9653 12.8928 48.8393 12.7131 48.7534 12.5152C48.6674 12.3174 48.6232 12.1054 48.6232 11.8913V8.63044C48.6232 8.19802 48.8034 7.78331 49.1241 7.47754C49.4448 7.17178 49.8798 7 50.3333 7C50.7869 7 51.2219 7.17178 51.5426 7.47754C51.8633 7.78331 52.0435 8.19802 52.0435 8.63044V11.8913C52.0435 12.1054 51.9993 12.3174 51.9133 12.5152C51.8274 12.7131 51.7014 12.8928 51.5426 13.0442C51.3838 13.1956 51.1953 13.3157 50.9878 13.3976C50.7803 13.4796 50.5579 13.5217 50.3333 13.5217ZM74.6174 22.9783C74.2792 22.9782 73.9487 22.8825 73.6675 22.7034C73.3863 22.5242 73.1672 22.2696 73.0378 21.9717C72.9084 21.6738 72.8745 21.3461 72.9405 21.0298C73.0064 20.7136 73.1692 20.4231 73.4083 20.1951L75.8025 17.9125C75.9603 17.7568 76.149 17.6326 76.3576 17.5471C76.5663 17.4617 76.7907 17.4167 77.0178 17.4148C77.2448 17.4129 77.47 17.4542 77.6802 17.5362C77.8904 17.6181 78.0813 17.7392 78.2419 17.8923C78.4024 18.0454 78.5294 18.2274 78.6154 18.4278C78.7014 18.6282 78.7447 18.8429 78.7427 19.0594C78.7407 19.2758 78.6936 19.4898 78.6039 19.6887C78.5143 19.8876 78.384 20.0675 78.2207 20.2179L75.8265 22.5005C75.6679 22.6522 75.4794 22.7724 75.2719 22.8544C75.0644 22.9364 74.842 22.9785 74.6174 22.9783ZM87.9565 46.1304H84.5363C84.0827 46.1304 83.6477 45.9587 83.327 45.6529C83.0063 45.3471 82.8261 44.9324 82.8261 44.5C82.8261 44.0676 83.0063 43.6529 83.327 43.3471C83.6477 43.0414 84.0827 42.8696 84.5363 42.8696H87.9565C88.4101 42.8696 88.8451 43.0414 89.1658 43.3471C89.4865 43.6529 89.6667 44.0676 89.6667 44.5C89.6667 44.9324 89.4865 45.3471 89.1658 45.6529C88.8451 45.9587 88.4101 46.1304 87.9565 46.1304Z" fill="#EFD358"/>
<path d="M74.2754 82.0001H26.3913C17.9056 82.0001 11 75.418 11 67.3262C11 59.2343 17.9056 52.6522 26.3913 52.6522C27.7799 52.6522 29.1669 52.8397 30.5333 53.2131C32.2851 50.0901 34.8928 47.4788 38.0785 45.6572C41.2642 43.8357 44.9085 42.8723 48.6232 42.8696C52.5501 42.8701 56.3942 43.9455 59.6986 45.9681C63.0031 47.9908 65.6288 50.8755 67.2638 54.2794C69.4301 53.2084 71.8351 52.6503 74.2754 52.6522C82.7611 52.6522 89.6667 59.2343 89.6667 67.3262C89.6667 75.418 82.7611 82.0001 74.2754 82.0001Z" fill="#E0E0E0"/>
</g>
<defs>
<filter id="filter0_d_35_127" x="8" y="4" width="86.6667" height="83" filterUnits="userSpaceOnUse" color-interpolation-filters="sRGB">
<feFlood flood-opacity="0" result="BackgroundImageFix"/>
<feColorMatrix in="SourceAlpha" type="matrix" values="0 0 0 0 0 0 0 0 0 0 0 0 0 0 0 0 0 0 127 0" result="hardAlpha"/>
<feOffset dx="1" dy="1"/>
<feGaussianBlur stdDeviation="2"/>
<feComposite in2="hardAlpha" operator="out"/>
<feColorMatrix type="matrix" values="0 0 0 0 0 0 0 0 0 0 0 0 0 0 0 0 0 0 0.55 0"/>
<feBlend mode="normal" in2="BackgroundImageFix" result="effect1_dropShadow_35_127"/>
<feBlend mode="normal" in="SourceGraphic" in2="effect1_dropShadow_35_127" result="shape"/>
</filter>
</defs>
</svg>
