<svg width="642" height="800" viewBox="0 0 642 800" fill="none" xmlns="http://www.w3.org/2000/svg">
<g filter="url(#filter0_d_21_137)">
<path d="M98.025 69.3187C100.083 69.3187 102.091 69.3562 104.05 69.3812C105.823 69.4187 107.534 69.4313 109.208 69.4313C125.102 69.4313 140.042 74.1563 153.345 81.8672C166.241 66.4078 172.688 52.2469 172.688 41.6578C172.688 28.5172 162.036 17.8531 148.881 17.8531C141.714 17.8531 135.28 21.0406 130.916 26.0734C130.991 25.3172 131.041 24.5734 131.041 23.8047C131.041 10.6484 120.366 0 107.222 0C94.0797 0 83.4172 10.65 83.4172 23.8047C83.4172 24.1641 83.4547 24.5234 83.4672 24.8719C79.6984 21.7344 74.8266 19.8375 69.5328 19.8375C57.4812 19.8375 47.7109 29.6203 47.7109 41.6578C47.7109 49.7922 52.2734 60.5172 62.5391 74.5891C74.8891 70.4234 86.6687 69.3187 98.025 69.3187Z" fill="white"/>
<path d="M623.758 152.092C580.214 106.006 493.337 97.7485 437.173 155.711C376.93 217.914 346.714 277.08 295.93 278.667C223.536 280.923 205.47 225.503 195.155 176.305C192.773 167.577 191.236 156.53 188.633 148.581C178.008 115.913 145.5 83.2657 109.308 83.2657C91.0702 83.2657 67.289 80.3516 37.2608 107.666C29.039 116.455 11.5202 136.281 2.40772 150.278C-7.80791 166.023 22.5421 163.297 35.0405 164.759C52.3233 166.781 62.639 174.989 68.9874 186.358C89.6561 221.147 84.5218 248.808 88.0312 306.97C92.7921 385.788 121.506 430.025 159.447 460.377C189.08 484.083 233.33 499.816 280.059 502.519V581.064H98.3343L102.984 554.778C103.544 551.58 102.266 548.331 99.6749 546.384C97.0702 544.425 93.5999 544.091 90.6858 545.528L5.02334 587.522C2.07334 588.973 0.188965 591.986 0.188965 595.272C0.188965 598.558 2.07334 601.57 5.02334 603.022L90.6858 645.016C93.5983 646.453 97.0702 646.119 99.6749 644.159C102.266 642.213 103.544 638.964 102.984 635.766L98.3343 609.48H280.059V694.708C225.109 701.539 181.578 745.02 174.759 799.995H415.512C408.819 746.086 366.825 703.238 313.387 695.155V609.484H454.867L481.511 643.494H576.669L544.953 595.275L576.669 547.056H481.511L454.867 581.067H313.387V502.15C381.455 496.769 448.717 461.855 478.834 382.145C516.4 391.953 548.028 331.125 523.419 308.398C573.209 331.373 624.256 265.945 578.467 235.422C641.872 246.283 654.556 184.688 623.758 152.092ZM94.8015 150.741C86.5562 150.741 79.8499 144.047 79.8499 135.789C79.8499 127.531 86.5562 120.848 94.8015 120.848C103.059 120.848 109.755 127.531 109.755 135.789C109.755 144.045 103.059 150.741 94.8015 150.741Z" fill="white"/>
</g>
<defs>
<filter id="filter0_d_21_137" x="0.188965" y="0" width="641.621" height="801.995" filterUnits="userSpaceOnUse" color-interpolation-filters="sRGB">
<feFlood flood-opacity="0" result="BackgroundImageFix"/>
<feColorMatrix in="SourceAlpha" type="matrix" values="0 0 0 0 0 0 0 0 0 0 0 0 0 0 0 0 0 0 127 0" result="hardAlpha"/>
<feOffset dx="1" dy="1"/>
<feGaussianBlur stdDeviation="0.5"/>
<feComposite in2="hardAlpha" operator="out"/>
<feColorMatrix type="matrix" values="0 0 0 0 0 0 0 0 0 0 0 0 0 0 0 0 0 0 1 0"/>
<feBlend mode="normal" in2="BackgroundImageFix" result="effect1_dropShadow_21_137"/>
<feBlend mode="normal" in="SourceGraphic" in2="effect1_dropShadow_21_137" result="shape"/>
</filter>
</defs>
</svg>
