<svg width="702" height="534" viewBox="0 0 702 534" fill="none" xmlns="http://www.w3.org/2000/svg">
<g filter="url(#filter0_d_23_141)">
<path d="M350.227 531.45C330.441 531.442 310.939 526.741 293.322 517.733C275.706 508.725 260.477 495.667 248.887 479.631C237.296 463.595 229.675 445.038 226.649 425.485C223.622 405.932 225.277 385.94 231.477 367.15C231.477 365.9 232.327 364.6 232.627 363.35C235.777 352.85 282.527 199.6 350.327 62.2V62.45C422.727 212.45 468.727 367.15 468.727 367.15C474.927 385.94 476.581 405.932 473.555 425.485C470.529 445.038 462.907 463.595 451.317 479.631C439.727 495.667 424.498 508.725 406.882 517.733C389.265 526.741 369.763 531.442 349.977 531.45H350.227ZM624.977 281.45C613.114 281.446 601.422 278.629 590.859 273.229C580.297 267.829 571.166 260.001 564.217 250.387C557.268 240.773 552.698 229.647 550.883 217.924C549.068 206.202 550.06 194.215 553.777 182.95C553.777 182.15 554.527 181.4 554.527 180.65C556.427 174.3 584.477 82.4 625.127 0V0.0999928C668.527 90.1 696.127 182.9 696.127 182.9C699.845 194.169 700.836 206.16 699.019 217.887C697.201 229.614 692.627 240.742 685.672 250.357C678.717 259.972 669.58 267.799 659.011 273.196C648.442 278.593 636.744 281.404 624.877 281.4L624.977 281.45ZM74.9768 281.45C63.1142 281.446 51.4216 278.629 40.8594 273.229C30.2971 267.829 21.1663 260.001 14.217 250.387C7.26761 240.773 2.69785 229.647 0.882959 217.924C-0.931931 206.202 0.0598211 194.215 3.77677 182.95C3.77677 182.15 4.52677 181.35 4.52677 180.65C6.42677 174.3 34.4768 82.4 75.1268 0V0.0999928C118.527 90.1 146.127 182.9 146.127 182.9C149.845 194.169 150.836 206.16 149.019 217.887C147.201 229.614 142.627 240.742 135.672 250.357C128.717 259.972 119.58 267.799 109.011 273.196C98.4421 278.593 86.7436 281.404 74.8768 281.4L74.9768 281.45Z" fill="white"/>
</g>
<defs>
<filter id="filter0_d_23_141" x="0" y="0" width="701.904" height="533.45" filterUnits="userSpaceOnUse" color-interpolation-filters="sRGB">
<feFlood flood-opacity="0" result="BackgroundImageFix"/>
<feColorMatrix in="SourceAlpha" type="matrix" values="0 0 0 0 0 0 0 0 0 0 0 0 0 0 0 0 0 0 127 0" result="hardAlpha"/>
<feOffset dx="1" dy="1"/>
<feGaussianBlur stdDeviation="0.5"/>
<feComposite in2="hardAlpha" operator="out"/>
<feColorMatrix type="matrix" values="0 0 0 0 0 0 0 0 0 0 0 0 0 0 0 0 0 0 1 0"/>
<feBlend mode="normal" in2="BackgroundImageFix" result="effect1_dropShadow_23_141"/>
<feBlend mode="normal" in="SourceGraphic" in2="effect1_dropShadow_23_141" result="shape"/>
</filter>
</defs>
</svg>
