<svg width="603" height="635" viewBox="0 0 603 635" fill="none" xmlns="http://www.w3.org/2000/svg">
<g filter="url(#filter0_d_40_12)">
<path d="M600.749 199.066C600.749 234.429 586.701 268.342 561.696 293.347C536.692 318.352 502.778 332.4 467.415 332.4H100.749C86.0004 332.51 71.4102 329.357 58.0236 323.166C44.6371 316.975 32.7857 307.899 23.3189 296.59C13.852 285.28 7.004 272.017 3.26564 257.749C-0.47273 243.482 -1.0089 228.565 1.69553 214.066C4.39996 199.567 10.278 185.846 18.9085 173.886C27.539 161.926 38.7082 152.023 51.6158 144.887C64.5233 137.751 78.8495 133.558 93.5678 132.61C108.286 131.661 123.032 133.98 136.749 139.4C142.143 106.875 157.061 76.6811 179.618 52.6366C202.174 28.5921 231.355 11.7776 263.469 4.32001C295.584 -3.1376 329.188 -0.903268 360.032 10.7404C390.876 22.3841 417.574 42.9139 436.749 69.733C446.786 67.238 457.074 65.896 467.415 65.733C502.778 65.733 536.692 79.7806 561.696 104.785C586.701 129.79 600.749 163.704 600.749 199.066ZM463.749 614.066L530.415 480.733C532.779 476.805 534.307 472.433 534.904 467.888C535.501 463.343 535.154 458.724 533.885 454.32C532.616 449.915 530.452 445.819 527.529 442.289C524.605 438.758 520.985 435.868 516.895 433.8C512.804 431.732 508.331 430.529 503.755 430.268C499.178 430.007 494.597 430.692 490.298 432.281C485.998 433.87 482.073 436.329 478.766 439.504C475.46 442.679 472.844 446.501 471.082 450.733L404.415 584.066C400.462 591.939 399.785 601.056 402.533 609.426C405.282 617.795 411.231 624.737 419.082 628.733C423.693 631.201 428.853 632.462 434.082 632.4C440.238 632.381 446.268 630.658 451.504 627.422C456.741 624.186 460.979 619.564 463.749 614.066ZM197.082 614.066L263.749 480.733C266.112 476.805 267.64 472.433 268.237 467.888C268.834 463.343 268.487 458.724 267.218 454.32C265.949 449.915 263.785 445.819 260.862 442.289C257.939 438.758 254.319 435.868 250.228 433.8C246.137 431.732 241.664 430.529 237.088 430.268C232.512 430.007 227.931 430.692 223.631 432.281C219.332 433.87 215.406 436.329 212.1 439.504C208.794 442.679 206.178 446.501 204.415 450.733L137.749 584.066C133.795 591.939 133.118 601.056 135.867 609.426C138.615 617.795 144.565 624.737 152.416 628.733C157.026 631.201 162.186 632.462 167.416 632.4C173.571 632.381 179.601 630.658 184.838 627.422C190.074 624.186 194.312 619.564 197.082 614.066ZM363.749 547.4L397.082 480.733C399.445 476.805 400.973 472.433 401.57 467.888C402.167 463.343 401.82 458.724 400.551 454.32C399.283 449.915 397.119 445.819 394.195 442.289C391.272 438.758 387.652 435.868 383.561 433.8C379.471 431.732 374.998 430.529 370.421 430.268C365.845 430.007 361.264 430.692 356.964 432.281C352.665 433.87 348.739 436.329 345.433 439.504C342.127 442.679 339.511 446.501 337.749 450.733L304.415 517.4C300.462 525.272 299.785 534.389 302.533 542.759C305.282 551.129 311.231 558.07 319.082 562.066C323.693 564.534 328.853 565.796 334.082 565.733C340.238 565.714 346.268 563.992 351.504 560.756C356.741 557.52 360.979 552.897 363.749 547.4ZM97.0822 547.4L130.416 480.733C133.651 472.963 133.828 464.257 130.91 456.363C127.992 448.468 122.195 441.97 114.684 438.172C107.173 434.374 98.5036 433.558 90.416 435.888C82.3284 438.218 75.4216 443.521 71.0822 450.733L37.7489 517.4C33.7951 525.272 33.1185 534.389 35.8667 542.759C38.615 551.129 44.5647 558.07 52.4155 562.066C57.0262 564.534 62.1863 565.796 67.4155 565.733C73.5711 565.714 79.6013 563.992 84.8377 560.756C90.0741 557.52 94.3122 552.897 97.0822 547.4Z" fill="white"/>
</g>
<defs>
<filter id="filter0_d_40_12" x="0" y="0" width="602.749" height="634.402" filterUnits="userSpaceOnUse" color-interpolation-filters="sRGB">
<feFlood flood-opacity="0" result="BackgroundImageFix"/>
<feColorMatrix in="SourceAlpha" type="matrix" values="0 0 0 0 0 0 0 0 0 0 0 0 0 0 0 0 0 0 127 0" result="hardAlpha"/>
<feOffset dx="1" dy="1"/>
<feGaussianBlur stdDeviation="0.5"/>
<feComposite in2="hardAlpha" operator="out"/>
<feColorMatrix type="matrix" values="0 0 0 0 0 0 0 0 0 0 0 0 0 0 0 0 0 0 1 0"/>
<feBlend mode="normal" in2="BackgroundImageFix" result="effect1_dropShadow_40_12"/>
<feBlend mode="normal" in="SourceGraphic" in2="effect1_dropShadow_40_12" result="shape"/>
</filter>
</defs>
</svg>
