<svg width="512" height="512" viewBox="0 0 512 512" fill="none" xmlns="http://www.w3.org/2000/svg">
<path d="M108.382 0H131.459V22.8H152.569V0H175.647V69.044H152.57V45.924H131.46V69.044H108.383L108.382 0Z" fill="#EBEBEB"/>
<path d="M205.994 22.896H185.678V0H249.398V22.896H229.073V69.044H205.995L205.994 22.896Z" fill="#EBEBEB"/>
<path d="M259.511 0H283.574L298.376 24.26L313.163 0H337.235V69.044H314.253V34.822L298.376 59.371H297.979L282.091 34.822V69.044H259.511V0Z" fill="#EBEBEB"/>
<path d="M348.72 0H371.804V46.222H404.257V69.044H348.72V0Z" fill="#EBEBEB"/>
<path d="M107.125 470.727L74.012 99.297H437.703L404.549 470.755L255.769 512L107.125 470.727Z" fill="#E34E26"/>
<path d="M255.857 129.657V480.449L376.164 447.101L404.51 129.657H255.857Z" fill="#EF662A"/>
<path d="M141.761 175.217L154.041 312.978H311.936L306.637 372.066L255.799 385.811L205.057 372.085L201.664 334.146H155.937L162.476 407.282L255.787 433.199L349.219 407.282L361.744 267.429H195.706L191.538 220.777H365.732H365.873L369.953 175.217H141.761Z" fill="white"/>
<path d="M255.857 175.217H141.761L154.041 312.978H255.857V267.429H195.706L191.538 220.777H255.857V175.217Z" fill="#EBEBEB"/>
<path d="M255.857 385.791L255.799 385.811L205.057 372.085L201.664 334.146H155.937L162.476 407.282L255.787 433.199L255.857 433.179V385.791Z" fill="#EBEBEB"/>
</svg>
