<svg width="1841" height="824" viewBox="0 0 1841 824" fill="none" xmlns="http://www.w3.org/2000/svg">
<path d="M118.37 675.789H73.38V762.492C73.38 785.611 88.6365 785.237 118.37 783.801V818.838C58.1548 826.077 34.1937 809.447 34.1937 762.492V675.789H0.810364V638.194H34.1937V589.679L73.38 578.135V638.194H118.37V675.789ZM289.904 638.194H329.09V818.838H289.904V792.818C276.113 811.975 254.68 823.549 226.382 823.549C177.056 823.549 136.06 781.992 136.06 728.516C136.06 674.697 177.056 633.514 226.382 633.514C254.68 633.514 276.113 645.058 289.904 663.84V638.194ZM232.559 786.329C265.225 786.329 289.904 762.118 289.904 728.516C289.904 694.915 265.225 670.704 232.559 670.704C199.893 670.704 175.246 694.915 175.246 728.516C175.246 762.118 199.893 786.329 232.559 786.329ZM394.39 611.113C380.6 611.113 369.337 599.538 369.337 586.185C369.368 582.909 370.024 579.664 371.271 576.638C372.532 573.612 374.377 570.864 376.701 568.551C379.024 566.239 381.78 564.407 384.812 563.16C387.838 561.912 391.114 561.257 394.39 561.257C397.666 561.257 400.911 561.912 403.968 563.16C406.995 564.408 409.74 566.248 412.08 568.557C414.389 570.897 416.23 573.643 417.509 576.638C418.757 579.664 419.412 582.909 419.412 586.185C419.412 599.538 408.18 611.113 394.39 611.113ZM374.797 818.838V638.194H413.983V818.838H374.797ZM459.347 818.838V555.11H498.534V818.838H459.347ZM752.871 638.194H794.241L737.271 818.838H698.802L661.082 697.098L622.988 818.838H584.519L527.549 638.194H568.919L604.112 762.836L642.207 638.194H679.584L717.304 762.836L752.871 638.194ZM842.85 611.113C829.06 611.113 817.828 599.538 817.828 586.185C817.828 582.909 818.483 579.664 819.731 576.638C821.01 573.643 822.851 570.897 825.16 568.557C827.5 566.248 830.245 564.408 833.272 563.16C836.329 561.912 839.574 561.257 842.85 561.257C849.479 561.258 855.839 563.883 860.54 568.557C862.88 570.897 864.72 573.643 865.968 576.638C867.248 579.664 867.903 582.909 867.903 586.185C867.903 599.538 856.64 611.113 842.85 611.113ZM823.256 818.838V638.194H862.443V818.838H823.256ZM1072.91 707.925V818.838H1033.73V711.918C1033.73 684.432 1017.75 669.986 993.075 669.986C967.304 669.986 946.993 685.18 946.993 722.027V818.838H907.807V638.194H946.993V661.313C958.974 642.531 978.567 633.514 1003.25 633.514C1043.87 633.514 1072.91 660.97 1072.91 707.925ZM1258.67 565.936H1297.86V818.838H1258.67V792.818C1244.88 811.975 1223.48 823.549 1195.18 823.549C1145.83 823.549 1104.83 781.992 1104.83 728.516C1104.83 674.697 1145.83 633.514 1195.18 633.514C1223.48 633.514 1244.88 645.058 1258.67 663.84V565.936ZM1201.36 786.329C1234 786.329 1258.67 762.118 1258.67 728.516C1258.67 694.915 1234 670.704 1201.36 670.704C1168.7 670.704 1144.02 694.915 1144.02 728.516C1144.02 762.118 1168.7 786.329 1201.36 786.329ZM1333.43 728.516C1333.43 674.697 1374.42 633.514 1429.21 633.514C1464.78 633.514 1495.6 651.922 1510.11 680.126L1476.38 699.626C1468.4 682.653 1450.61 671.796 1428.84 671.796C1396.92 671.796 1372.61 696.007 1372.61 728.516C1372.61 761.026 1396.92 785.237 1428.84 785.237C1450.61 785.237 1468.4 774.036 1477.1 757.438L1510.86 776.563C1495.6 805.111 1464.78 823.549 1429.21 823.549C1374.42 823.549 1333.43 781.992 1333.43 728.516ZM1673.03 767.89C1673.03 804.019 1641.46 823.549 1602.27 823.549C1565.99 823.549 1539.87 807.263 1528.27 781.274L1561.99 761.744C1567.83 778.03 1582.34 787.764 1602.27 787.764C1619.71 787.764 1633.13 781.992 1633.13 767.547C1633.13 735.38 1535.54 753.445 1535.54 688.768C1535.54 654.823 1564.93 633.514 1601.93 633.514C1631.66 633.514 1656.34 647.242 1669.04 671.078L1636.03 689.517C1629.51 675.415 1616.81 668.925 1601.93 668.925C1587.77 668.925 1575.44 675.041 1575.44 688.051C1575.44 720.935 1673.03 701.061 1673.03 767.89ZM1840.32 767.89C1840.32 804.019 1808.75 823.549 1769.56 823.549C1733.28 823.549 1707.13 807.263 1695.53 781.274L1729.29 761.744C1735.09 778.03 1749.6 787.764 1769.56 787.764C1786.97 787.764 1800.39 781.992 1800.39 767.547C1800.39 735.38 1702.8 753.445 1702.8 688.768C1702.8 654.823 1732.19 633.514 1769.19 633.514C1798.95 633.514 1823.63 647.242 1836.33 671.078L1803.29 689.517C1796.77 675.415 1784.07 668.925 1769.19 668.925C1755.06 668.925 1742.7 675.041 1742.7 688.051C1742.7 720.935 1840.32 701.061 1840.32 767.89Z" fill="#FFF7F7"/>
<path d="M921 0C804.491 0 731.614 53.7832 702.474 161.35C746.211 107.566 797.193 87.3671 855.474 100.801C888.686 108.498 912.432 130.756 938.77 155.417C981.608 195.522 1031.22 242 1139.53 242C1256.04 242 1328.86 188.217 1358 80.6503C1314.32 134.434 1263.33 154.584 1205.05 141.15C1171.84 133.502 1148.04 111.194 1121.76 86.5827C1078.92 46.4291 1029.31 0 921 0ZM702.474 242C585.965 242 513.14 295.783 484 403.35C527.684 349.566 578.667 329.416 636.947 342.85C670.213 350.498 693.959 372.805 720.243 397.417C763.081 437.571 812.689 484 921 484C1037.56 484 1110.39 430.217 1139.53 322.65C1095.79 376.434 1044.81 396.633 986.579 383.199C953.314 375.502 929.568 353.244 903.23 328.583C860.392 288.478 810.785 242 702.474 242Z" fill="#06B6D4"/>
</svg>
